<svg class="animated" id="freepik_stories-chess" xmlns="http://www.w3.org/2000/svg" viewBox="0 0 500 500" version="1.1" xmlns:xlink="http://www.w3.org/1999/xlink" xmlns:svgjs="http://svgjs.com/svgjs"><style>svg#freepik_stories-chess:not(.animated) .animable {opacity: 0;}svg#freepik_stories-chess.animated #freepik--background-complete--inject-31 {animation: 1s 1 forwards cubic-bezier(.36,-0.01,.5,1.38) zoomIn;animation-delay: 0s;}svg#freepik_stories-chess.animated #freepik--character-2--inject-31 {animation: 1s 1 forwards cubic-bezier(.36,-0.01,.5,1.38) slideRight;animation-delay: 0s;}svg#freepik_stories-chess.animated #freepik--Table--inject-31 {animation: 1s 1 forwards cubic-bezier(.36,-0.01,.5,1.38) slideUp;animation-delay: 0s;}svg#freepik_stories-chess.animated #freepik--character-1--inject-31 {animation: 1s 1 forwards cubic-bezier(.36,-0.01,.5,1.38) slideLeft,1.5s Infinite  linear wind;animation-delay: 0s,1s;}svg#freepik_stories-chess.animated #freepik--Screen--inject-31 {animation: 1s 1 forwards cubic-bezier(.36,-0.01,.5,1.38) zoomIn,1.5s Infinite  linear floating;animation-delay: 0s,1s;}            @keyframes zoomIn {                0% {                    opacity: 0;                    transform: scale(0.5);                }                100% {                    opacity: 1;                    transform: scale(1);                }            }                    @keyframes slideRight {                0% {                    opacity: 0;                    transform: translateX(30px);                }                100% {                    opacity: 1;                    transform: translateX(0);                }            }                    @keyframes slideUp {                0% {                    opacity: 0;                    transform: translateY(30px);                }                100% {                    opacity: 1;                    transform: inherit;                }            }                    @keyframes slideLeft {                0% {                    opacity: 0;                    transform: translateX(-30px);                }                100% {                    opacity: 1;                    transform: translateX(0);                }            }                    @keyframes wind {                0% {                    transform: rotate( 0deg );                }                25% {                    transform: rotate( 1deg );                }                75% {                    transform: rotate( -1deg );                }            }                    @keyframes floating {                0% {                    opacity: 1;                    transform: translateY(0px);                }                50% {                    transform: translateY(-10px);                }                100% {                    opacity: 1;                    transform: translateY(0px);                }            }        </style><g id="freepik--background-complete--inject-31" class="animable" style="transform-origin: 250px 228.23px;"><rect x="416.78" y="398.49" width="33.12" height="0.25" style="fill: rgb(235, 235, 235); transform-origin: 433.34px 398.615px;" id="el9qajlybg2vv" class="animable"></rect><rect x="322.53" y="401.21" width="8.69" height="0.25" style="fill: rgb(235, 235, 235); transform-origin: 326.875px 401.335px;" id="els23vf3lmw9d" class="animable"></rect><rect x="396.59" y="389.21" width="19.19" height="0.25" style="fill: rgb(235, 235, 235); transform-origin: 406.185px 389.335px;" id="el46d9q03vgi6" class="animable"></rect><rect x="52.46" y="390.89" width="43.19" height="0.25" style="fill: rgb(235, 235, 235); transform-origin: 74.055px 391.015px;" id="el71tqt10sru" class="animable"></rect><rect x="104.56" y="390.89" width="6.33" height="0.25" style="fill: rgb(235, 235, 235); transform-origin: 107.725px 391.015px;" id="elj7xfcbhpida" class="animable"></rect><rect x="131.47" y="395.11" width="93.68" height="0.25" style="fill: rgb(235, 235, 235); transform-origin: 178.31px 395.235px;" id="elit38dchh97" class="animable"></rect><path d="M238.4,337.8H45.3a5.71,5.71,0,0,1-5.71-5.71V60.66A5.71,5.71,0,0,1,45.3,55H238.4a5.71,5.71,0,0,1,5.71,5.71V332.09A5.71,5.71,0,0,1,238.4,337.8ZM45.3,55.2a5.47,5.47,0,0,0-5.46,5.46V332.09a5.47,5.47,0,0,0,5.46,5.46H238.4a5.47,5.47,0,0,0,5.46-5.46V60.66a5.47,5.47,0,0,0-5.46-5.46Z" style="fill: rgb(235, 235, 235); transform-origin: 141.85px 196.4px;" id="el44x33bbx5v2" class="animable"></path><path d="M454.7,337.8H261.6a5.71,5.71,0,0,1-5.71-5.71V60.66A5.71,5.71,0,0,1,261.6,55H454.7a5.71,5.71,0,0,1,5.71,5.71V332.09A5.71,5.71,0,0,1,454.7,337.8ZM261.6,55.2a5.47,5.47,0,0,0-5.46,5.46V332.09a5.47,5.47,0,0,0,5.46,5.46H454.7a5.47,5.47,0,0,0,5.46-5.46V60.66a5.47,5.47,0,0,0-5.46-5.46Z" style="fill: rgb(235, 235, 235); transform-origin: 358.15px 196.4px;" id="elleli05vptx" class="animable"></path><rect y="382.4" width="500" height="0.25" style="fill: rgb(235, 235, 235); transform-origin: 250px 382.525px;" id="elwnmtcc53iyo" class="animable"></rect><path d="M153.85,200.26a41.48,41.48,0,1,0-83,.25c0,3.84,0,7.68,0,11.51V366.39c0,4.24-.5,8.83,0,13.05a3.87,3.87,0,0,1,0,.59A1,1,0,0,0,73,380V205c0-5.78.11-11.41,1.94-17a39.42,39.42,0,0,1,74.93,0,41,41,0,0,1,1.94,12.24,1,1,0,0,0,2.07,0Z" style="fill: rgb(235, 235, 235); transform-origin: 112.254px 269.977px;" id="elome78pzf4po" class="animable"></path><path d="M174,205.75a24.7,24.7,0,1,0-49.39,0Z" style="fill: rgb(240, 240, 240); transform-origin: 149.305px 193.152px;" id="el0ltuylxbdjo" class="animable"></path><path d="M150.6,181.08q-.34,0-.69,0c-9.28,0-16.81,11.06-16.81,24.7h7.07C140.17,192.44,144.8,181.6,150.6,181.08Z" style="fill: rgb(250, 250, 250); transform-origin: 141.85px 193.43px;" id="el8yru4fadk2h" class="animable"></path><path d="M161.92,205.75h4.81c0-12-5.86-22.05-13.61-24.24C158.13,183.7,161.92,193.72,161.92,205.75Z" style="fill: rgb(250, 250, 250); transform-origin: 159.925px 193.63px;" id="eleqess5iql37" class="animable"></path><rect x="65.99" y="308.74" width="12.04" height="73.51" style="fill: rgb(224, 224, 224); transform-origin: 72.01px 345.495px;" id="elhaq4w2asr3k" class="animable"></rect><path d="M58.9,378.09H85a4.47,4.47,0,0,1,4.47,4.47v.15a0,0,0,0,1,0,0h-35a0,0,0,0,1,0,0v-.15A4.47,4.47,0,0,1,58.9,378.09Z" style="fill: rgb(224, 224, 224); transform-origin: 71.97px 380.4px;" id="elpwiqfbxzy8" class="animable"></path><path d="M407.73,341.11s-19.32-8.89-16.94-13.81c1.27-2.63,11.41,2.54,11.41,2.54s-20.26-17.51-15.68-22.65c2.37-2.65,12.53,6.68,12.53,6.68s-16.05-27.3-8.78-30.44c6.53-2.83,14.53,24.48,14.53,24.48s4.09-16.45,8.15-15.09c7,2.35-4.4,29.35-4.4,29.35s6.82-10.73,9.68-9.05c6,3.56-6.8,27.2-6.8,27.2Z" style="fill: rgb(235, 235, 235); transform-origin: 402.838px 312.167px;" id="el3q6rpso4hd" class="animable"></path><path d="M409,341.34s-13.58-6.84-11.44-10c1.38-2,8.75,4.54,8.75,4.54l-4.19-12.31s-12.74-9.09-11.58-11.52c.88-1.86,11.8,8.8,11.8,8.8s.17-6.65-.59-8.7c-2.08-5.67-11.36-20.44-9.18-22.37s9.87,15.75,11.06,21.73c.22,1.13.77,4.55.77,4.55s3.26-18.4,7.53-16.73c5.38,2.11-7.38,21.9-7.38,21.9l3,9.5s5.25-13.06,8.26-11.28c3.61,2.13-7,15.22-7,15.22s1,3.94.79,5.25A7.23,7.23,0,0,1,409,341.34Z" style="fill: rgb(250, 250, 250); transform-origin: 403.512px 315.487px;" id="el1kky8n1by8x" class="animable"></path><path d="M420.72,341.5s23.51-12.72,20.12-18.7c-1.81-3.19-14.1,4.11-14.1,4.11s24-23.61,17.82-29.69c-3.18-3.13-15.18,9.4-15.18,9.4s17.93-35.55,8.55-38.9c-8.42-3-16.24,31.89-16.24,31.89s-6.46-20.3-11.46-18.26c-8.63,3.52,7.92,36.46,7.92,36.46s-9.43-12.9-12.88-10.56C398,312.2,416,340.81,416,340.81Z" style="fill: rgb(230, 230, 230); transform-origin: 424.559px 304.519px;" id="elud8dkb96k4e" class="animable"></path><path d="M419.15,341.9s15.43-12.12,16.25-15.54c.72-3-13.31,8.48-13.31,8.48l4.25-15.77s14.09-10.25,13.6-15.4c-.45-4.61-14.1,12-14.1,12s-.75-8.33,0-11c2.15-7.28,12.3-27.64,9.7-28.81-5.07-2.28-11.1,20.56-12.1,28.16-.19,1.44-.6,5.77-.6,5.77s-8.92-23.94-10.81-20.37c-2,3.74,11,26.87,11,26.87l-3,12.16s-11.39-17-11.27-13.48,10.06,18.52,10.06,18.52-.88,5-.56,6.66A9.06,9.06,0,0,0,419.15,341.9Z" style="fill: rgb(250, 250, 250); transform-origin: 424.356px 308.8px;" id="el7agifhbfq3n" class="animable"></path><path d="M418.44,382.71H406.73a8.72,8.72,0,0,1-8.7-8.19l-2.17-35.27h33.46l-2.17,35.27A8.73,8.73,0,0,1,418.44,382.71Z" style="fill: rgb(235, 235, 235); transform-origin: 412.59px 360.98px;" id="ellp6t6nzpmv" class="animable"></path><rect x="353.82" y="196.45" width="37.09" height="9.95" rx="1.32" style="fill: rgb(245, 245, 245); transform-origin: 372.365px 201.425px;" id="el7lz3sv985dg" class="animable"></rect><rect x="342.5" y="208.79" width="37.09" height="9.95" rx="1.32" style="fill: rgb(245, 245, 245); transform-origin: 361.045px 213.765px;" id="el7laqt3ema4" class="animable"></rect><rect x="381.31" y="208.79" width="37.09" height="9.95" rx="1.32" style="fill: rgb(240, 240, 240); transform-origin: 399.855px 213.765px;" id="elzb1mx1dend8" class="animable"></rect><rect x="355.95" y="125.37" width="37.09" height="9.95" rx="1.32" style="fill: rgb(245, 245, 245); transform-origin: 374.495px 130.345px;" id="elkuzrf3axubb" class="animable"></rect><rect x="344.62" y="137.71" width="37.09" height="9.95" rx="1.32" style="fill: rgb(245, 245, 245); transform-origin: 363.165px 142.685px;" id="eljhpuatcumu" class="animable"></rect><rect x="383.44" y="137.71" width="37.09" height="9.95" rx="1.32" style="fill: rgb(240, 240, 240); transform-origin: 401.985px 142.685px;" id="eljud8q6jeg5d" class="animable"></rect><rect x="100.53" y="123.66" width="37.09" height="9.95" rx="1.32" style="fill: rgb(230, 230, 230); transform-origin: 119.075px 128.635px;" id="el7int2mt4cxn" class="animable"></rect><rect x="89.21" y="136" width="37.09" height="9.95" rx="1.32" style="fill: rgb(245, 245, 245); transform-origin: 107.755px 140.975px;" id="el2kqzwp0j7fq" class="animable"></rect><rect x="128.02" y="136" width="37.09" height="9.95" rx="1.32" style="fill: rgb(240, 240, 240); transform-origin: 146.565px 140.975px;" id="eljw9cws68vs" class="animable"></rect><rect x="89.21" y="111.99" width="37.09" height="9.95" rx="1.32" style="fill: rgb(240, 240, 240); transform-origin: 107.755px 116.965px;" id="elgsyth935eoc" class="animable"></rect><g id="el8g5lci1xwt3"><rect x="388.28" y="196.45" width="37.09" height="9.95" rx="1.32" style="fill: rgb(240, 240, 240); transform-origin: 406.825px 201.425px; transform: rotate(180deg);" class="animable" id="elmk8opztlp6f"></rect></g></g><g id="freepik--Shadow--inject-31" class="animable" style="transform-origin: 250px 412.39px;"><ellipse id="freepik--path--inject-31" cx="250" cy="412.39" rx="193.89" ry="11.32" style="fill: rgb(245, 245, 245); transform-origin: 250px 412.39px;" class="animable"></ellipse></g><g id="freepik--character-2--inject-31" class="animable" style="transform-origin: 351.25px 316.502px;"><path d="M377.81,261.83a2.82,2.82,0,0,0-2.54,1.46A98,98,0,0,0,363,331a2.48,2.48,0,0,0,2.36,2.21c1.84.12,34.58,0,35.77,0a3.3,3.3,0,0,0,3.33-3.84,91.47,91.47,0,0,1,11.66-63c1.4-2.33-.67-4.51-2.75-4.55C412.42,261.81,379.9,261.87,377.81,261.83Z" style="fill: rgb(38, 50, 56); transform-origin: 389.002px 297.541px;" id="elp4myj2qjd5" class="animable"></path><g id="el6lfhdt0eup7"><path d="M377.81,261.83a2.82,2.82,0,0,0-2.54,1.46A98,98,0,0,0,363,331a2.48,2.48,0,0,0,2.36,2.21c1.84.12,34.58,0,35.77,0a3.3,3.3,0,0,0,3.33-3.84,91.47,91.47,0,0,1,11.66-63c1.4-2.33-.67-4.51-2.75-4.55C412.42,261.81,379.9,261.87,377.81,261.83Z" style="fill: rgb(255, 255, 255); opacity: 0.1; transform-origin: 389.002px 297.541px;" class="animable" id="eli9ukzd8ranb"></path></g><path d="M404.46,329.34a91.47,91.47,0,0,1,11.66-63c2-3.39-3.26-6.47-5.29-3.09A98.06,98.06,0,0,0,398.55,331c.7,3.88,6.61,2.24,5.91-1.62Z" style="fill: rgb(38, 50, 56); transform-origin: 406.771px 297.502px;" id="elvpcog0ayz9s" class="animable"></path><path d="M308.05,327.56a104.1,104.1,0,0,1,23-3.16c8-.2,37.8,0,44.89,0a103.47,103.47,0,0,1,25.62,3.19c5.26,1.34,3.64,8.94-1.11,9-.42,0-90.62,0-91,0C304.49,336.8,302.68,328.93,308.05,327.56Z" style="fill: rgb(38, 50, 56); transform-origin: 354.806px 330.453px;" id="elhopmfsweb2l" class="animable"></path><path d="M399.08,336.42a94.25,94.25,0,0,0-46.36,0c-5.73,1.46-8.17-7.4-2.44-8.86a104.08,104.08,0,0,1,51.24,0c5.72,1.46,3.3,10.33-2.44,8.86Z" style="fill: rgb(38, 50, 56); transform-origin: 375.899px 330.471px;" id="eld1usy9grhzc" class="animable"></path><g id="elqwyhodsrx1"><path d="M399.08,336.42a94.25,94.25,0,0,0-46.36,0c-5.73,1.46-8.17-7.4-2.44-8.86a104.08,104.08,0,0,1,51.24,0c5.72,1.46,3.3,10.33-2.44,8.86Z" style="fill: rgb(255, 255, 255); opacity: 0.1; transform-origin: 375.899px 330.471px;" class="animable" id="elt3q7vq5ikm"></path></g><path d="M353.16,340.87c-8.59,0-17.24-.31-25.83,0-13.68.5-12.82,14.34-13.51,24.18-.71,10.19-1.56,20.38-2.14,30.58-.38,6.7,3.43,12,10.48,12.32,3.37.13,6.78,0,10.16,0h30.46c2.81,0,2.82,4.36,0,4.36H332.32c-3.62,0-7.31.19-10.93,0a14.83,14.83,0,0,1-14.17-14.4c-.26-10.09,1.38-20.53,2.08-30.58s-.55-23,9.86-28.73c5.15-2.85,11.49-2.06,17.17-2.06h16.83c2.81,0,2.81,4.36,0,4.36Z" style="fill: rgb(38, 50, 56); transform-origin: 336.042px 374.417px;" id="elz4muru6x9ed" class="animable"></path><g id="elkryawp2t4sp"><g style="opacity: 0.5; transform-origin: 336.042px 374.417px;" class="animable" id="elkri8mgsh4dd"><path d="M353.16,340.87c-8.59,0-17.24-.31-25.83,0-13.68.5-12.82,14.34-13.51,24.18-.71,10.19-1.56,20.38-2.14,30.58-.38,6.7,3.43,12,10.48,12.32,3.37.13,6.78,0,10.16,0h30.46c2.81,0,2.82,4.36,0,4.36H332.32c-3.62,0-7.31.19-10.93,0a14.83,14.83,0,0,1-14.17-14.4c-.26-10.09,1.38-20.53,2.08-30.58s-.55-23,9.86-28.73c5.15-2.85,11.49-2.06,17.17-2.06h16.83c2.81,0,2.81,4.36,0,4.36Z" style="fill: rgb(255, 255, 255); transform-origin: 336.042px 374.417px;" id="elk59dkrn89rf" class="animable"></path></g></g><g id="eleytv456ps5g"><g style="opacity: 0.2; transform-origin: 336.042px 374.417px;" class="animable" id="eld2pm1xgy24w"><path d="M353.16,340.87c-8.59,0-17.24-.31-25.83,0-13.68.5-12.82,14.34-13.51,24.18-.71,10.19-1.56,20.38-2.14,30.58-.38,6.7,3.43,12,10.48,12.32,3.37.13,6.78,0,10.16,0h30.46c2.81,0,2.82,4.36,0,4.36H332.32c-3.62,0-7.31.19-10.93,0a14.83,14.83,0,0,1-14.17-14.4c-.26-10.09,1.38-20.53,2.08-30.58s-.55-23,9.86-28.73c5.15-2.85,11.49-2.06,17.17-2.06h16.83c2.81,0,2.81,4.36,0,4.36Z" id="elm1gfigje9j" class="animable" style="transform-origin: 336.042px 374.417px;"></path></g></g><g id="elwgl9dhdhisk"><path d="M319.16,338.57c5.15-2.85,11.49-2.06,17.17-2.06h16.83c2.81,0,2.81,4.36,0,4.36-8.59,0-17.24-.31-25.83,0a13.45,13.45,0,0,0-6.64,1.8H314.3A15.54,15.54,0,0,1,319.16,338.57Z" style="opacity: 0.2; transform-origin: 334.784px 339.54px;" class="animable" id="eljweatw93j7d"></path></g><path d="M394.81,340.87c-8.6,0-17.25-.31-25.84,0-13.67.5-12.81,14.34-13.5,24.18-.71,10.19-1.56,20.38-2.14,30.58-.38,6.7,3.43,12,10.47,12.32,3.38.13,6.79,0,10.17,0h30.46c2.81,0,2.81,4.36,0,4.36H374c-3.63,0-7.31.19-10.93,0a14.82,14.82,0,0,1-14.17-14.4c-.27-10.09,1.37-20.53,2.08-30.58s-.56-23,9.85-28.73c5.16-2.85,11.5-2.06,17.17-2.06h16.84c2.81,0,2.81,4.36,0,4.36Z" style="fill: rgb(38, 50, 56); transform-origin: 377.704px 374.417px;" id="el5agqvssj8j8" class="animable"></path><g id="elx2hmlqwqa1h"><g style="opacity: 0.5; transform-origin: 377.704px 374.417px;" class="animable" id="elk9sttkqr8p"><path d="M394.81,340.87c-8.6,0-17.25-.31-25.84,0-13.67.5-12.81,14.34-13.5,24.18-.71,10.19-1.56,20.38-2.14,30.58-.38,6.7,3.43,12,10.47,12.32,3.38.13,6.79,0,10.17,0h30.46c2.81,0,2.81,4.36,0,4.36H374c-3.63,0-7.31.19-10.93,0a14.82,14.82,0,0,1-14.17-14.4c-.27-10.09,1.37-20.53,2.08-30.58s-.56-23,9.85-28.73c5.16-2.85,11.5-2.06,17.17-2.06h16.84c2.81,0,2.81,4.36,0,4.36Z" style="fill: rgb(255, 255, 255); transform-origin: 377.704px 374.417px;" id="els5k45hwjl0o" class="animable"></path></g></g><g id="el5yp61erflml"><path d="M360.8,338.57c5.16-2.85,11.5-2.06,17.17-2.06h16.84c2.81,0,2.81,4.36,0,4.36-8.6,0-17.25-.31-25.84,0a13.44,13.44,0,0,0-6.63,1.8h-6.4A15.77,15.77,0,0,1,360.8,338.57Z" style="opacity: 0.2; transform-origin: 376.429px 339.54px;" class="animable" id="elb373kzoakeu"></path></g><path d="M320.4,256.26l1.92-12.66,0-9.42s4.3-2.57,3.82-4.08c-.66-2.12-7.43-2.75-7.43-2.75s-3,1.63-3.44,3.08c-.8,2.82,2.19,11.29,2.19,11.29l-3.06,12.11Z" style="fill: rgb(206, 122, 99); transform-origin: 320.289px 241.805px;" id="el3n4o2m5nurb" class="animable"></path><g id="el43nrh43l1w4"><path d="M320.4,256.26l1.92-12.66,0-9.42s4.3-2.57,3.82-4.08c-.66-2.12-7.43-2.75-7.43-2.75s-3,1.63-3.44,3.08c-.8,2.82,2.19,11.29,2.19,11.29l-3.06,12.11Z" style="opacity: 0.1; transform-origin: 320.289px 241.805px;" class="animable" id="elr44u9m1okx"></path></g><polygon points="318.4 375.71 323.79 399.19 317.1 401.79 307.46 378.17 318.4 375.71" style="fill: rgb(206, 122, 99); transform-origin: 315.625px 388.75px;" id="el2ln2p18fr3l" class="animable"></polygon><g id="el9r8g2flj7ri"><polygon points="307.46 378.16 313.96 394.1 322.2 392.26 318.4 375.71 307.46 378.16" style="opacity: 0.1; transform-origin: 314.83px 384.905px;" class="animable" id="el0rd53xisjnf"></polygon></g><path d="M317.22,400.61l6.08-3.25a.64.64,0,0,1,.79.15l4.34,5a1.06,1.06,0,0,1-.1,1.51.83.83,0,0,1-.18.13c-2.55,1.32-4.88,2.39-8,4.09-3.72,2-2.54,1.94-6.87,4.35-2.62,1.45-4.71-1.28-3.67-2,4.76-3.39,5.39-5.75,6.38-8.63A2.56,2.56,0,0,1,317.22,400.61Z" style="fill: rgb(38, 50, 56); transform-origin: 319.018px 405.146px;" id="elboz2jwzlpyh" class="animable"></path><path d="M372.67,302.86l-32.88-1.81s-54.63,8.54-53.86,23.82S309,388.3,309,388.3l13-3.62s-9.93-48.42-16.41-56.44c0,0,40.8-4.79,51-7.51C362.24,319.23,375.78,321.76,372.67,302.86Z" style="fill: #0064FF; transform-origin: 329.525px 344.675px;" id="el0p0gryo2ftz8" class="animable"></path><g id="eloxlh80j0iw"><path d="M311.13,327.57a29.22,29.22,0,0,1,2.51-13.19c3-6.86,28.05-11,40-12.57l19,1.05c3.11,18.9-10.43,16.37-16.05,17.87C348.74,322.83,322.63,326.16,311.13,327.57Z" style="opacity: 0.1; transform-origin: 342.1px 314.69px;" class="animable" id="el2oa4laabgph"></path></g><polygon points="340.74 382.18 341.6 406.26 334.35 406.6 329.53 382.52 340.74 382.18" style="fill: rgb(206, 122, 99); transform-origin: 335.565px 394.39px;" id="ell5od6xngjyp" class="animable"></polygon><g id="elj6d99n8eiag"><polygon points="332.57 397.7 341.28 397.38 340.74 382.18 329.53 382.52 332.57 397.7" style="opacity: 0.1; transform-origin: 335.405px 389.94px;" class="animable" id="el6ewrxhhfe0j"></polygon></g><path d="M334.87,404.41l7,.15a.65.65,0,0,1,.63.52l1.35,6.63A1.09,1.09,0,0,1,343,413l-.23,0c-2.92-.1-5.52-.31-9.16-.37-4.3-.08-3.22.45-8.27.43-3.05,0-3.54-3.48-2.25-3.63,5.92-.63,7.66-2.41,10-4.48A2.57,2.57,0,0,1,334.87,404.41Z" style="fill: rgb(38, 50, 56); transform-origin: 333.147px 408.732px;" id="elas2f42x66st" class="animable"></path><path d="M363.87,302.86s-44,1.56-46.61,15,12.17,73.79,12.17,73.79h13.21s-.53-59.9-6-65.5c0,0,32.25,5.69,41.83-2.54,6.85-5.88,2.71-20.77,2.71-20.77Z" style="fill: #0064FF; transform-origin: 349.685px 347.245px;" id="elkliay96zbq" class="animable"></path><polygon points="323.05 381.83 306.65 386.41 309.65 392.71 324.6 389 323.05 381.83" style="fill: #0064FF; transform-origin: 315.625px 387.27px;" id="elnsioahqnot" class="animable"></polygon><g id="elniiywxhoy"><polygon points="323.05 381.83 306.65 386.41 309.65 392.71 324.6 389 323.05 381.83" style="fill: rgb(255, 255, 255); opacity: 0.3; transform-origin: 315.625px 387.27px;" class="animable" id="elmtsn5x8ogm"></polygon></g><polygon points="343.93 388.31 327.36 389.08 328.92 395.68 343.93 394.91 343.93 388.31" style="fill: #0064FF; transform-origin: 335.645px 391.995px;" id="el0wnkxth75fa" class="animable"></polygon><g id="elug9pqs4ueqc"><polygon points="343.93 388.31 327.36 389.08 328.92 395.68 343.93 394.91 343.93 388.31" style="fill: rgb(255, 255, 255); opacity: 0.3; transform-origin: 335.645px 391.995px;" class="animable" id="elqeeev95f0u"></polygon></g><path d="M323.81,256.9,319.06,268l2.88-18.12-6.25-1.17s-8.81,29.17-2,31.61c7.12,2.56,15-10.49,15.84-16.07C329.89,262,328.73,254.23,323.81,256.9Z" style="fill: #0064FF; transform-origin: 320.349px 264.679px;" id="ell44e5cxpy9" class="animable"></path><g id="elw84cwz0labp"><path d="M323.81,256.9,319.06,268l2.88-18.12-6.25-1.17s-8.81,29.17-2,31.61c7.12,2.56,15-10.49,15.84-16.07C329.89,262,328.73,254.23,323.81,256.9Z" style="fill: rgb(255, 255, 255); opacity: 0.6; transform-origin: 320.349px 264.679px;" class="animable" id="elwghfltaztim"></path></g><polygon points="315.55 247.53 322.6 248.73 322.16 252.65 314.05 251.23 315.55 247.53" style="fill: #0064FF; transform-origin: 318.325px 250.09px;" id="elx2ky0xt3sg" class="animable"></polygon><g id="elci9n8jlyc3c"><polygon points="315.55 247.53 322.6 248.73 322.16 252.65 314.05 251.23 315.55 247.53" style="fill: rgb(255, 255, 255); opacity: 0.3; transform-origin: 318.325px 250.09px;" class="animable" id="elqx7ehpl8iml"></polygon></g><g id="elrfsdrlb98u"><path d="M329.39,261.21l-1.11-2.73h-2.6l-1.28,1.79a45.14,45.14,0,0,0,1.09,13,25.55,25.55,0,0,0,4-9A10.47,10.47,0,0,0,329.39,261.21Z" style="opacity: 0.2; transform-origin: 326.937px 265.875px;" class="animable" id="el2whakyizj88"></path></g><path d="M338.3,301.24s6,2.57,43.19,1.78c0,0-1.89-30.16-20.05-57.5,0,0-26.46-8.62-37.63,11.38a71.17,71.17,0,0,0,9.88,26.72C341.81,296.15,338.3,301.24,338.3,301.24Z" style="fill: #0064FF; transform-origin: 352.65px 273.422px;" id="elochgtqnqsp9" class="animable"></path><g id="elf0wc1svlqwk"><path d="M338.3,301.24s6,2.57,43.19,1.78c0,0-1.89-30.16-20.05-57.5,0,0-26.46-8.62-37.63,11.38a71.17,71.17,0,0,0,9.88,26.72C341.81,296.15,338.3,301.24,338.3,301.24Z" style="fill: rgb(255, 255, 255); opacity: 0.7; transform-origin: 352.65px 273.422px;" class="animable" id="eldygxtyhf6yu"></path></g><g id="el7lg9wgmmwp4"><path d="M341.12,255.73c-1.81,1.33-4.81,0-4.81,0s-2,3.33-4.67,1.5a13.63,13.63,0,0,1-3-3,13.22,13.22,0,0,0,3.58,4.36c2.66,1.84,4.66-1.5,4.66-1.5s3,1.34,4.81,0c1.3-1,1.89-7.07,2.13-10.42C343.29,250,342.29,254.86,341.12,255.73Z" style="opacity: 0.2; transform-origin: 336.23px 252.907px;" class="animable" id="elwlr3mc4c1ye"></path></g><path d="M334.92,239.53s-.24,2.79,5.51,4.75c0,0-3.22,10.2-4.65,10.28s-6.88-4.62-6.88-4.62l.69-2.89Z" style="fill: rgb(206, 122, 99); transform-origin: 334.665px 247.046px;" id="ele8aja08nrn6" class="animable"></path><g id="ellesf1kltfua"><path d="M334.92,239.53s-.24,2.79,5.51,4.75c0,0-3.22,10.2-4.65,10.28s-6.88-4.62-6.88-4.62l.69-2.89Z" style="opacity: 0.1; transform-origin: 334.665px 247.046px;" class="animable" id="elcl3eo9l0t0d"></path></g><path d="M328.16,249l7.82,5.28,4.5-12.5,3.83,1.94s-1.39,10.73-3.2,12.06-4.8,0-4.8,0-2,3.33-4.67,1.5a16.47,16.47,0,0,1-4.41-5.14Z" style="fill: #0064FF; transform-origin: 335.77px 249.805px;" id="el6ppxakv99gw" class="animable"></path><g id="elg33vnht2h9"><path d="M328.16,249l7.82,5.28,4.5-12.5,3.83,1.94s-1.39,10.73-3.2,12.06-4.8,0-4.8,0-2,3.33-4.67,1.5a16.47,16.47,0,0,1-4.41-5.14Z" style="fill: rgb(255, 255, 255); opacity: 0.7; transform-origin: 335.77px 249.805px;" class="animable" id="elnt5h53hswo"></path></g><path d="M334.19,229.92c.8,7.3,1.65,11.52-1.33,16a9.54,9.54,0,0,1-16.82-1.6c-2.66-6.15-3.52-17,3-21.38a9.65,9.65,0,0,1,15.17,7Z" style="fill: rgb(206, 122, 99); transform-origin: 324.499px 235.712px;" id="elpsv24md3kn" class="animable"></path><path d="M323.69,234.21c.11.58-.13,1.12-.52,1.17s-.76-.34-.87-.92.12-1.13.52-1.17S323.59,233.62,323.69,234.21Z" style="fill: rgb(38, 50, 56); transform-origin: 322.995px 234.336px;" id="elpvxiq7bd0lg" class="animable"></path><path d="M317.11,235.58c.1.59-.12,1.12-.52,1.17s-.77-.33-.88-.92.13-1.12.53-1.17S317,235,317.11,235.58Z" style="fill: rgb(38, 50, 56); transform-origin: 316.409px 235.705px;" id="elr5t41v8kmb" class="animable"></path><path d="M325.35,231.64a.38.38,0,0,0,.16-.06.34.34,0,0,0,0-.48h0a3.4,3.4,0,0,0-3.06-.9.36.36,0,0,0-.25.42h0a.34.34,0,0,0,.42.25h0a2.7,2.7,0,0,1,2.38.68A.32.32,0,0,0,325.35,231.64Z" style="fill: rgb(38, 50, 56); transform-origin: 323.901px 230.895px;" id="elf802uhhemle" class="animable"></path><path d="M313.89,233.89a.35.35,0,0,0,.22-.24,2.92,2.92,0,0,1,1.67-2,.35.35,0,0,0,.14-.48.34.34,0,0,0-.37-.17h0a3.56,3.56,0,0,0-2.1,2.43.35.35,0,0,0,.23.43h0A.34.34,0,0,0,313.89,233.89Z" style="fill: rgb(38, 50, 56); transform-origin: 314.701px 232.444px;" id="ele1vd0a9384" class="animable"></path><path d="M319.36,235.45a22.74,22.74,0,0,1-1.91,5.6,3.45,3.45,0,0,0,2.88,0Z" style="fill: rgb(186, 77, 60); transform-origin: 318.89px 238.407px;" id="el4ky1xy9ksnq" class="animable"></path><path d="M338,235.44a6.49,6.49,0,0,1-2.27,4.18c-1.66,1.36-3.25,0-3.42-2-.16-1.86.53-4.79,2.5-5.35S338.2,233.43,338,235.44Z" style="fill: rgb(206, 122, 99); transform-origin: 335.153px 236.166px;" id="ela27oglxeb5i" class="animable"></path><path d="M321.78,243.15c.06.71.5,1.24,1,1.18s.76-.65.68-1.35-.5-1.22-1-1.17S321.7,242.49,321.78,243.15Z" style="fill: rgb(38, 50, 56); transform-origin: 322.62px 243.071px;" id="el16fyq7dapym" class="animable"></path><path d="M333.36,235.7a6.14,6.14,0,0,1-2.31-4.68c-.21-2.36-2.25-4.88-3.49-6.21a2.08,2.08,0,0,0-2.1-.6,25.08,25.08,0,0,1-5.72,1c-3.21.09-2.38-1.66-1.94-2.25,1.42-1.9,4-3.94,9.15-2.57s10,3.62,8.17,14.24Z" style="fill: rgb(38, 50, 56); transform-origin: 326.441px 227.821px;" id="el9pfidqgjmrk" class="animable"></path><g id="elm1g2d7i4ta"><path d="M344.31,282.49c3.92,0,11-7.49,15.42-15.34a31.68,31.68,0,0,0,2.73-6.88c-4.58,8.78-13.4,20.07-18.15,20.07-4.3,0-7.24-5-9.34-11.69C336.81,276.34,339.56,282.49,344.31,282.49Z" style="opacity: 0.2; transform-origin: 348.715px 271.38px;" class="animable" id="elk37x1saawdl"></path></g><path d="M346.48,285.23a1.26,1.26,0,1,1-1.26-1.25A1.26,1.26,0,0,1,346.48,285.23Z" style="fill: #0064FF; transform-origin: 345.22px 285.24px;" id="el9u7zhxoc2a6" class="animable"></path><path d="M349.22,298.53a1.26,1.26,0,1,1-1.25-1.25A1.25,1.25,0,0,1,349.22,298.53Z" style="fill: #0064FF; transform-origin: 347.96px 298.54px;" id="ele4r9m2g9bqh" class="animable"></path><g id="eld523s3p49gt"><g style="opacity: 0.3; transform-origin: 346.59px 291.89px;" class="animable" id="el1ezkd6imt8g"><path d="M346.48,285.23a1.26,1.26,0,1,1-1.26-1.25A1.26,1.26,0,0,1,346.48,285.23Z" style="fill: rgb(255, 255, 255); transform-origin: 345.22px 285.24px;" id="elexo0sdykw09" class="animable"></path><path d="M349.22,298.53a1.26,1.26,0,1,1-1.25-1.25A1.25,1.25,0,0,1,349.22,298.53Z" style="fill: rgb(255, 255, 255); transform-origin: 347.96px 298.54px;" id="ell106v2v9iq" class="animable"></path></g></g><g id="eltsp2tq6r5uo"><path d="M326.23,228.4s-1.76,2,2.82,4.89a80.27,80.27,0,0,0,.25,9.35c.42,2.79,1.29,6.59,1.29,6.59l5.18-2.13-3.93-15.25-1-3.45-2.74-.76Z" style="opacity: 0.1; transform-origin: 330.834px 238.435px;" class="animable" id="elaxfhg18zgpf"></path></g><path d="M332,254.56l-1.92-12.66,0-9.42s-4.3-2.57-3.82-4.08c.67-2.12,7.44-2.75,7.44-2.75s3,1.63,3.43,3.08c.8,2.82-2.18,11.29-2.18,11.29l3.72,11.84Z" style="fill: rgb(206, 122, 99); transform-origin: 332.446px 240.105px;" id="elj37vvn79m79" class="animable"></path><g id="el5l1djxt4ps"><path d="M332,254.56l-1.92-12.66,0-9.42s-4.3-2.57-3.82-4.08c.67-2.12,7.44-2.75,7.44-2.75s3,1.63,3.43,3.08c.8,2.82-2.18,11.29-2.18,11.29l3.72,11.84Z" style="fill: rgb(255, 255, 255); opacity: 0.1; transform-origin: 332.446px 240.105px;" class="animable" id="elq55h3v70v78"></path></g><path d="M331.05,249.76c1.91,12.93,5.21,30.58,13.26,30.58,6.88,0,22.31-23.67,21-29.13-1.62-6.81-7.33-15.31-20.33,16l-7.78-20.56Z" style="fill: #0064FF; transform-origin: 348.219px 262.556px;" id="el5tkdu3t5clu" class="animable"></path><g id="el208czfrajhf"><path d="M331.05,249.76c1.91,12.93,5.21,30.58,13.26,30.58,6.88,0,22.31-23.67,21-29.13-1.62-6.81-7.33-15.31-20.33,16l-7.78-20.56Z" style="fill: rgb(255, 255, 255); opacity: 0.6; transform-origin: 348.219px 262.556px;" class="animable" id="el54il9x2n8go"></path></g><polygon points="330.23 248.56 337.31 245.18 339.1 249.06 330.44 252.73 330.23 248.56" style="fill: #0064FF; transform-origin: 334.665px 248.955px;" id="el506bkkmd97c" class="animable"></polygon><g id="eluiggmyi04w"><polygon points="330.23 248.56 337.31 245.18 339.1 249.06 330.44 252.73 330.23 248.56" style="fill: rgb(255, 255, 255); opacity: 0.3; transform-origin: 334.665px 248.955px;" class="animable" id="eldqvrzbpbomh"></polygon></g><g id="elog5bszd5r0h"><path d="M319,268.66H319c-.24,1.26-.8,4.58.1,4.21S319,270.42,319,268.66Z" style="opacity: 0.2; transform-origin: 319.041px 270.779px;" class="animable" id="elo50suz9ohdc"></path></g></g><g id="freepik--Table--inject-31" class="animable" style="transform-origin: 253.09px 335.165px;"><path d="M219.3,262.23l-1.35-.6c-1.83,1.28-4.87-.6-5.68-1.15l.07-.18a.27.27,0,0,0-.13-.35.26.26,0,0,0-.28,0l-.4-1.25-1.28-.57-.33.76.47.21L210,260l-.48-.21-.7,1.58.47.21-.37.83-.47-.21-.34.76,1.27.57,1.2-.54a.27.27,0,0,0,.16.24.28.28,0,0,0,.36-.14l.07-.18c1,.24,4.38,1.26,4.65,3.48l1.34.6.29.76,2.59-5.77Z" style="fill: rgb(38, 50, 56); transform-origin: 214.075px 262.94px;" id="el7g5e7oy4xk3" class="animable"></path><path d="M220,274.28l-.6-1.07c-1.85,0-3-2.77-3.23-3.55l.13-.07a.23.23,0,0,0,.09-.31.22.22,0,0,0-.21-.11l-.08,0a1.68,1.68,0,1,0-2.19,1.24l-.07.06a.19.19,0,0,0,0,.23.23.23,0,0,0,.31.09l.14-.08c.52.63,2.31,3,1.4,4.59l.6,1.06-.18.65,4.55-2.58Z" style="fill: #0064FF; transform-origin: 216.718px 272.076px;" id="els4312ds8ns" class="animable"></path><g id="el6axnahzgmqs"><path d="M220,274.28l-.6-1.07c-1.85,0-3-2.77-3.23-3.55l.13-.07a.23.23,0,0,0,.09-.31.22.22,0,0,0-.21-.11l-.08,0a1.68,1.68,0,1,0-2.19,1.24l-.07.06a.19.19,0,0,0,0,.23.23.23,0,0,0,.31.09l.14-.08c.52.63,2.31,3,1.4,4.59l.6,1.06-.18.65,4.55-2.58Z" style="fill: rgb(255, 255, 255); opacity: 0.8; transform-origin: 216.718px 272.076px;" class="animable" id="el1n722vnxikgh"></path></g><rect x="147.9" y="280.96" width="210.38" height="7.56" style="fill: rgb(38, 50, 56); transform-origin: 253.09px 284.74px;" id="elpefujd5sxz" class="animable"></rect><g id="elo2dmner44p"><rect x="147.9" y="280.96" width="210.38" height="7.56" style="fill: rgb(255, 255, 255); opacity: 0.5; transform-origin: 253.09px 284.74px;" class="animable" id="elz61bver5gxh"></rect></g><g id="el0w715by5eyk"><rect x="147.9" y="280.96" width="76.45" height="7.56" style="fill: rgb(255, 255, 255); opacity: 0.3; transform-origin: 186.125px 284.74px;" class="animable" id="el04i2khn9kidp"></rect></g><rect x="229.32" y="288.51" width="47.53" height="121.42" style="fill: rgb(38, 50, 56); transform-origin: 253.085px 349.22px;" id="elrpeit5f6fhd" class="animable"></rect><g id="el0r3mrofm91ok"><rect x="229.32" y="288.51" width="47.53" height="121.42" style="fill: rgb(255, 255, 255); opacity: 0.1; transform-origin: 253.085px 349.22px;" class="animable" id="elcilkzcy81ju"></rect></g><g id="eleukixg0eepi"><rect x="229.32" y="288.51" width="19.18" height="121.42" style="fill: rgb(255, 255, 255); opacity: 0.1; transform-origin: 238.91px 349.22px;" class="animable" id="ele3gn7xqq92s"></rect></g><rect x="198.72" y="405.29" width="108.73" height="6.91" style="fill: rgb(38, 50, 56); transform-origin: 253.085px 408.745px;" id="elsvek1wtay7b" class="animable"></rect><g id="elee9db2vjogd"><rect x="198.72" y="405.29" width="108.73" height="6.91" style="fill: rgb(255, 255, 255); opacity: 0.4; transform-origin: 253.085px 408.745px;" class="animable" id="elsxy88jjbmxg"></rect></g><g id="elac7dftdhd6"><rect x="198.72" y="405.29" width="39.51" height="6.91" style="fill: rgb(255, 255, 255); opacity: 0.2; transform-origin: 218.475px 408.745px;" class="animable" id="elxjekycm12wg"></rect></g><rect x="197.81" y="276.35" width="110.55" height="4.6" style="fill: #0064FF; transform-origin: 253.085px 278.65px;" id="ele936nju4bsq" class="animable"></rect><g id="eldowh5dupcba"><rect x="197.81" y="276.35" width="110.55" height="4.6" style="fill: rgb(255, 255, 255); opacity: 0.3; transform-origin: 253.085px 278.65px;" class="animable" id="elwtl447lrdyb"></rect></g><g id="elnye7ituq06d"><rect x="197.81" y="276.35" width="55.28" height="4.6" style="fill: rgb(255, 255, 255); opacity: 0.2; transform-origin: 225.45px 278.65px;" class="animable" id="el6atjl1g6cp9"></rect></g><path d="M283.59,275.78V274.3c-1.92-1.15-1.45-4.68-1.28-5.66h.2a.27.27,0,0,0,.27-.27.28.28,0,0,0-.15-.24l1-.87v-1.4h-.83v.52h-.91v-.52h-1.73v.52h-.91v-.52h-.83v1.4l1,.87a.28.28,0,0,0-.15.24.27.27,0,0,0,.27.27h.19c.17,1,.65,4.51-1.27,5.66v1.48l-.58.57h6.32Z" style="fill: rgb(38, 50, 56); transform-origin: 281.04px 271.105px;" id="elprmdfebh1k" class="animable"></path><path d="M259.64,275.78V274.3c-1.92-1.15-1.45-4.68-1.28-5.66h.2a.27.27,0,0,0,.27-.27.28.28,0,0,0-.15-.24l1-.87v-1.4h-.82v.52h-.91v-.52h-1.73v.52h-.91v-.52h-.83v1.4l1,.87a.28.28,0,0,0-.15.24.27.27,0,0,0,.27.27h.19c.17,1,.65,4.51-1.27,5.66v1.48l-.58.57h6.32Z" style="fill: #0064FF; transform-origin: 257.1px 271.105px;" id="elji5vw2mz1w" class="animable"></path><g id="el63cw9cz081p"><path d="M259.64,275.78V274.3c-1.92-1.15-1.45-4.68-1.28-5.66h.2a.27.27,0,0,0,.27-.27.28.28,0,0,0-.15-.24l1-.87v-1.4h-.82v.52h-.91v-.52h-1.73v.52h-.91v-.52h-.83v1.4l1,.87a.28.28,0,0,0-.15.24.27.27,0,0,0,.27.27h.19c.17,1,.65,4.51-1.27,5.66v1.48l-.58.57h6.32Z" style="fill: rgb(255, 255, 255); opacity: 0.7; transform-origin: 257.1px 271.105px;" class="animable" id="elnlf33hh46fi"></path></g><path d="M292.21,266.36l-.46-.47a.33.33,0,0,1,0,.45.31.31,0,0,1-.45,0l.46.47a.33.33,0,0,0,.45,0A.31.31,0,0,0,292.21,266.36Z" style="fill: rgb(38, 50, 56); transform-origin: 291.803px 266.394px;" id="elflddqg6av0a" class="animable"></path><g id="el1mk5gjjsznn"><path d="M292.21,266.36l-.46-.47a.33.33,0,0,1,0,.45.31.31,0,0,1-.45,0l.46.47a.33.33,0,0,0,.45,0A.31.31,0,0,0,292.21,266.36Z" style="fill: rgb(255, 255, 255); opacity: 0.2; transform-origin: 291.803px 266.394px;" class="animable" id="elyjpa1xpylqj"></path></g><path d="M294.5,275.78V274.3c-1.92-1.15-1.45-4.68-1.28-5.66h.2a.27.27,0,0,0,.27-.27.28.28,0,0,0-.15-.24h-1a1.21,1.21,0,0,0,.82-1.17c0-.8-1.46-2.16-1.46-2.16s-.29.27-.61.64l.91.92a.31.31,0,0,1,0,.45.33.33,0,0,1-.45,0l-.86-.86a2,2,0,0,0-.45,1,1.2,1.2,0,0,0,.83,1.17h-1a.28.28,0,0,0-.15.24.27.27,0,0,0,.27.27h.19c.17,1,.65,4.51-1.27,5.66v1.48l-.58.57h6.32Z" style="fill: rgb(38, 50, 56); transform-origin: 291.89px 270.57px;" id="elnlqffkmyurf" class="animable"></path><path d="M265,266.36l-.46-.47a.33.33,0,0,1,0,.45.31.31,0,0,1-.45,0l.46.47a.33.33,0,0,0,.45,0A.31.31,0,0,0,265,266.36Z" style="fill: #0064FF; transform-origin: 264.593px 266.394px;" id="el1890t7enc5i" class="animable"></path><g id="el69e1d115tys"><path d="M265,266.36l-.46-.47a.33.33,0,0,1,0,.45.31.31,0,0,1-.45,0l.46.47a.33.33,0,0,0,.45,0A.31.31,0,0,0,265,266.36Z" style="fill: rgb(255, 255, 255); opacity: 0.2; transform-origin: 264.593px 266.394px;" class="animable" id="elyq06hva8wk"></path></g><path d="M267.3,275.78V274.3c-1.92-1.15-1.45-4.68-1.27-5.66h.19a.27.27,0,0,0,.27-.27.28.28,0,0,0-.15-.24h-1a1.21,1.21,0,0,0,.82-1.17c0-.8-1.46-2.16-1.46-2.16s-.29.27-.61.64l.91.92a.31.31,0,0,1,0,.45.33.33,0,0,1-.45,0l-.86-.86a2,2,0,0,0-.44,1,1.2,1.2,0,0,0,.82,1.17h-1a.28.28,0,0,0-.15.24.27.27,0,0,0,.27.27h.19c.17,1,.65,4.51-1.27,5.66v1.48l-.58.57h6.32Z" style="fill: #0064FF; transform-origin: 264.69px 270.57px;" id="elrwxv4l6wkif" class="animable"></path><g id="el2tx169z14mj"><path d="M267.3,275.78V274.3c-1.92-1.15-1.45-4.68-1.27-5.66h.19a.27.27,0,0,0,.27-.27.28.28,0,0,0-.15-.24h-1a1.21,1.21,0,0,0,.82-1.17c0-.8-1.46-2.16-1.46-2.16s-.29.27-.61.64l.91.92a.31.31,0,0,1,0,.45.33.33,0,0,1-.45,0l-.86-.86a2,2,0,0,0-.44,1,1.2,1.2,0,0,0,.82,1.17h-1a.28.28,0,0,0-.15.24.27.27,0,0,0,.27.27h.19c.17,1,.65,4.51-1.27,5.66v1.48l-.58.57h6.32Z" style="fill: rgb(255, 255, 255); opacity: 0.7; transform-origin: 264.69px 270.57px;" class="animable" id="elykxcxqs866"></path></g><path d="M298.25,274.3v1.48l-.58.57H304l-.57-.57V274.3c-1.92-1.15,0-3.32,0-5.48,0-1.79-1.7-1.95-2.91-1.84l-1-.23.17.34a3.55,3.55,0,0,0-.41.1l.17.57a3.88,3.88,0,0,0-1,.78c-.29.42-.6.2-1,.85s.18.83.18.83c.71-.35.13.14.13.14a7,7,0,0,0,1.93-.3C299.87,271,300.17,273.15,298.25,274.3Z" style="fill: rgb(38, 50, 56); transform-origin: 300.655px 271.55px;" id="el7ep7mfmp9t5" class="animable"></path><path d="M274,275.87v-1.22c-1.59-.95-1.19-3.88-1.05-4.68h.16a.22.22,0,0,0,.22-.22.19.19,0,0,0-.12-.2l-.09,0a1.71,1.71,0,0,0,.43-1.12,1.69,1.69,0,1,0-2.95,1.12l-.08,0a.2.2,0,0,0-.13.2.22.22,0,0,0,.23.22h.16c.14.8.53,3.73-1.06,4.68v1.22l-.48.48h5.24Z" style="fill: #0064FF; transform-origin: 271.86px 271.542px;" id="elidtwjk8x88h" class="animable"></path><g id="eltqihvnzb65"><path d="M274,275.87v-1.22c-1.59-.95-1.19-3.88-1.05-4.68h.16a.22.22,0,0,0,.22-.22.19.19,0,0,0-.12-.2l-.09,0a1.71,1.71,0,0,0,.43-1.12,1.69,1.69,0,1,0-2.95,1.12l-.08,0a.2.2,0,0,0-.13.2.22.22,0,0,0,.23.22h.16c.14.8.53,3.73-1.06,4.68v1.22l-.48.48h5.24Z" style="fill: rgb(255, 255, 255); opacity: 0.7; transform-origin: 271.86px 271.542px;" class="animable" id="elhnpoqm9p1sc"></path></g><path d="M231.46,275.87v-1.22c-1.59-.95-1.19-3.88-1.05-4.68h.16a.22.22,0,0,0,.22-.22.19.19,0,0,0-.12-.2l-.09,0a1.71,1.71,0,0,0,.43-1.12,1.69,1.69,0,1,0-3.37,0,1.66,1.66,0,0,0,.43,1.12l-.09,0a.2.2,0,0,0-.13.2.22.22,0,0,0,.23.22h.16c.14.8.53,3.73-1.06,4.68v1.22l-.47.48h5.23Z" style="fill: #0064FF; transform-origin: 229.325px 271.48px;" id="elci769xzcdqq" class="animable"></path><g id="elf60dhse0ea"><path d="M231.46,275.87v-1.22c-1.59-.95-1.19-3.88-1.05-4.68h.16a.22.22,0,0,0,.22-.22.19.19,0,0,0-.12-.2l-.09,0a1.71,1.71,0,0,0,.43-1.12,1.69,1.69,0,1,0-3.37,0,1.66,1.66,0,0,0,.43,1.12l-.09,0a.2.2,0,0,0-.13.2.22.22,0,0,0,.23.22h.16c.14.8.53,3.73-1.06,4.68v1.22l-.47.48h5.23Z" style="fill: rgb(255, 255, 255); opacity: 0.7; transform-origin: 229.325px 271.48px;" class="animable" id="elgorp5sdj60i"></path></g><path d="M249.88,275.87v-1.22c-1.59-.95-1.2-3.88-1.06-4.68H249a.22.22,0,0,0,.23-.22.2.2,0,0,0-.13-.2l-.09,0a1.66,1.66,0,0,0,.43-1.12,1.69,1.69,0,1,0-3.37,0,1.71,1.71,0,0,0,.43,1.12l-.09,0a.19.19,0,0,0-.12.2.22.22,0,0,0,.22.22h.16c.14.8.54,3.73-1.05,4.68v1.22l-.48.48h5.24Z" style="fill: rgb(38, 50, 56); transform-origin: 247.76px 271.48px;" id="el7fi785qj9kv" class="animable"></path><path d="M239.77,275.79v-1.43c-1.86-1.12-1.61-4.55-1.44-5.5h.39a.26.26,0,0,0,.26-.26.23.23,0,0,0-.14-.23l-.11,0-.62,0a7.8,7.8,0,0,1,.52-2.7h-1.09l-.13-.92.77.17v-.64l-.77.18.17-.78h-.64l.17.78-.77-.18v.64l.77-.17-.13.92h-1.09a7.8,7.8,0,0,1,.52,2.7l-.62,0-.11,0a.23.23,0,0,0-.14.23.26.26,0,0,0,.26.26h.39c.17.95.42,4.38-1.44,5.5v1.43l-.56.56h6.14Z" style="fill: #0064FF; transform-origin: 237.26px 270.015px;" id="eliok0nz70men" class="animable"></path><g id="elkzvz4rkbfo"><path d="M239.77,275.79v-1.43c-1.86-1.12-1.61-4.55-1.44-5.5h.39a.26.26,0,0,0,.26-.26.23.23,0,0,0-.14-.23l-.11,0-.62,0a7.8,7.8,0,0,1,.52-2.7h-1.09l-.13-.92.77.17v-.64l-.77.18.17-.78h-.64l.17.78-.77-.18v.64l.77-.17-.13.92h-1.09a7.8,7.8,0,0,1,.52,2.7l-.62,0-.11,0a.23.23,0,0,0-.14.23.26.26,0,0,0,.26.26h.39c.17.95.42,4.38-1.44,5.5v1.43l-.56.56h6.14Z" style="fill: rgb(255, 255, 255); opacity: 0.7; transform-origin: 237.26px 270.015px;" class="animable" id="elphzfe4a9vz"></path></g><path d="M288.19,275.79v-1.43c-1.86-1.12-1.61-4.55-1.44-5.5h.39a.26.26,0,0,0,.26-.26.23.23,0,0,0-.14-.23l-.11,0-.62,0a7.8,7.8,0,0,1,.52-2.7H286l-.13-.92.77.17v-.64l-.77.18.17-.78h-.64l.17.78-.77-.18v.64l.77-.17-.13.92h-1.09a7.8,7.8,0,0,1,.52,2.7l-.62,0-.11,0a.23.23,0,0,0-.14.23.26.26,0,0,0,.26.26h.39c.17.95.42,4.38-1.44,5.5v1.43l-.56.56h6.14Z" style="fill: rgb(38, 50, 56); transform-origin: 285.72px 270.015px;" id="el09s5ieyewibq" class="animable"></path></g><g id="freepik--character-1--inject-31" class="animable" style="transform-origin: 150.933px 304.634px;"><path d="M162.27,220.9a2.84,2.84,0,0,1-.69-.09,2.54,2.54,0,0,1-1.78-1.4c-.86-1.83.43-4.62.49-4.73l.13-.29h.32c4.72,0,4.76.1,4.94.39.26.44-.2,3.49-1.32,5A2.57,2.57,0,0,1,162.27,220.9Zm-1.2-5.51c-.35.86-.85,2.57-.36,3.6a1.57,1.57,0,0,0,1.12.85,1.39,1.39,0,0,0,1.35-.28c1-.86,1.47-3.14,1.56-4.09C164,215.43,162.52,215.4,161.07,215.39Z" style="fill: #0064FF; transform-origin: 162.628px 217.645px;" id="el6f29huggh0q" class="animable"></path><polygon points="187.8 386.78 186.83 404.7 180.33 405.2 178.62 386.89 187.8 386.78" style="fill: rgb(255, 195, 189); transform-origin: 183.21px 395.99px;" id="elw74qaikcgrs" class="animable"></polygon><path d="M188.13,404.63a.17.17,0,0,1-.14-.13.18.18,0,0,1,.08-.18c.11-.06,2.58-1.49,3.76-1.18a.91.91,0,0,1,.53.39.63.63,0,0,1,0,.73,3,3,0,0,1-2.08.56A12.16,12.16,0,0,1,188.13,404.63Zm.54-.23c1.32.16,3.11.13,3.44-.33,0-.06.09-.16,0-.37a.46.46,0,0,0-.33-.23,1.12,1.12,0,0,0-.32,0A7.93,7.93,0,0,0,188.67,404.4Z" style="fill: #0064FF; transform-origin: 190.232px 403.966px;" id="el8hlyid8373s" class="animable"></path><path d="M188,404.62a.18.18,0,0,1-.08-.15,4.83,4.83,0,0,1,1.09-2.75,1.2,1.2,0,0,1,.93-.29c.46,0,.61.27.63.46.15.8-1.54,2.35-2.38,2.73,0,0,0,0-.07,0A.17.17,0,0,1,188,404.62Zm1.83-2.87a.88.88,0,0,0-.58.21,4,4,0,0,0-.93,2.18c.88-.52,2-1.73,1.94-2.22,0,0,0-.16-.33-.18Z" style="fill: #0064FF; transform-origin: 189.25px 403.026px;" id="elnw3kips514" class="animable"></path><path d="M187.4,403.65H180a.62.62,0,0,0-.6.49l-1.35,6.31a1,1,0,0,0,.78,1.24l.22,0c2.79-.07,4.89-.18,8.36-.2,4.1,0,3.06.47,7.88.5,2.91,0,3.41-3.28,2.18-3.44-5.64-.67-6.24-2.36-8.43-4.36A2.44,2.44,0,0,0,187.4,403.65Z" style="fill: rgb(38, 50, 56); transform-origin: 188.057px 407.819px;" id="eln4k47p1e6tj" class="animable"></path><g id="eljuhd2v701sn"><polygon points="187.15 398.75 179.73 398.77 179.05 391.54 187.55 391.44 187.15 398.75" style="opacity: 0.1; transform-origin: 183.3px 395.105px;" class="animable" id="elygl9ne01pt"></polygon></g><path d="M118,307.81s-3.79,18.82,12,22.33,45.13-.3,45.13-.3-3.35,10.22,4,65.39h8.75s8.14-62,2.85-71.68S153.55,309.28,118,307.81Z" style="fill: #0064FF; transform-origin: 155.059px 351.52px;" id="el7by5fzqsjiu" class="animable"></path><path d="M118,307.81s-3.79,18.82,12,22.33,45.13-.3,45.13-.3-3.35,10.22,4,65.39h8.75s8.14-62,2.85-71.68S153.55,309.28,118,307.81Z" style="fill: #0064FF; transform-origin: 155.059px 351.52px;" id="elimz289r18de" class="animable"></path><g id="ely8bgd864k7m"><path d="M190,322.56a7.93,7.93,0,0,1,.67,1c2.68,4.9,1.91,23.28.49,40.2C184.61,343.17,185,338,185,338s-4.32-.28-10.61-.61c.16-5.8.72-7.52.72-7.52S185.12,320.25,190,322.56Z" style="opacity: 0.2; transform-origin: 183.422px 342.981px;" class="animable" id="eln005w8wak7f"></path></g><polygon points="188.72 392.82 188.23 396.29 178.62 396.31 178.15 392.98 188.72 392.82" style="fill: #0064FF; transform-origin: 183.435px 394.565px;" id="elkk96mqf7oee" class="animable"></polygon><g id="elrncpv5ybwxa"><polygon points="188.72 392.82 188.23 396.29 178.62 396.31 178.15 392.98 188.72 392.82" style="fill: rgb(255, 255, 255); opacity: 0.3; transform-origin: 183.435px 394.565px;" class="animable" id="elneocyamress"></polygon></g><polygon points="213.07 383.45 215.83 401.45 209.2 402.72 203.34 385.95 213.07 383.45" style="fill: rgb(255, 195, 189); transform-origin: 209.585px 393.085px;" id="el7c04z8mhqan" class="animable"></polygon><path d="M217.06,401.33a.21.21,0,0,1-.14-.16A.18.18,0,0,1,217,401c.13-.06,3.07-1.45,4.4-1a1,1,0,0,1,.58.48.68.68,0,0,1,0,.81,3.59,3.59,0,0,1-2.43.45A14.72,14.72,0,0,1,217.06,401.33Zm.64-.21c1.51.28,3.56.4,4-.09.06-.06.12-.17,0-.41a.51.51,0,0,0-.36-.28,1.15,1.15,0,0,0-.36-.07A9.09,9.09,0,0,0,217.7,401.12Z" style="fill: #0064FF; transform-origin: 219.516px 400.851px;" id="elzvpcj6hb44" class="animable"></path><path d="M217,401.31a.18.18,0,0,1-.07-.17c0-.1.38-2.21,1.47-3a1.43,1.43,0,0,1,1.1-.25c.52.09.67.36.68.57.11.9-2,2.48-3,2.84h-.08A.2.2,0,0,1,217,401.31Zm2.34-3a1,1,0,0,0-.68.19,4.4,4.4,0,0,0-1.25,2.34c1-.51,2.43-1.76,2.41-2.3,0-.05,0-.19-.37-.24Z" style="fill: #0064FF; transform-origin: 218.556px 399.589px;" id="elzsfjs20s9p" class="animable"></path><path d="M216.31,400.17l-8.88-.58a.72.72,0,0,0-.73.5l-2.09,6.9a1.16,1.16,0,0,0,.79,1.44,1.18,1.18,0,0,0,.25,0c3.21.16,6.06.17,10,.44,4.7.31,3.47.77,9,1.21,3.33.26,4.19-3.37,2.79-3.64-6.41-1.21-6.95-3.15-9.28-5.56A3,3,0,0,0,216.31,400.17Z" style="fill: rgb(38, 50, 56); transform-origin: 216.324px 404.841px;" id="elwjs3lseb4w" class="animable"></path><g id="elnh6z6y6jem9"><polygon points="204.62 389.63 213.5 386.3 214.84 395.03 207.19 396.98 204.62 389.63" style="opacity: 0.1; transform-origin: 209.73px 391.64px;" class="animable" id="elx0qfsknx5v"></polygon></g><path d="M122.79,309s-2,21,14.17,20.68,49.73,1.8,49.73,1.8-.83,10.72,19.42,62.56l8.49-2.07s-6.86-62.18-14.29-70.3S157.72,301.92,122.79,309Z" style="fill: #0064FF; transform-origin: 168.656px 350.423px;" id="el014cw1hpa6fuj" class="animable"></path><polygon points="214.89 389.38 215.25 392.87 205.92 395.17 204.66 392.05 214.89 389.38" style="fill: #0064FF; transform-origin: 209.955px 392.275px;" id="ellkwx35m3gsb" class="animable"></polygon><g id="elyefrqusr6ws"><polygon points="214.89 389.38 215.25 392.87 205.92 395.17 204.66 392.05 214.89 389.38" style="fill: rgb(255, 255, 255); opacity: 0.3; transform-origin: 209.955px 392.275px;" class="animable" id="eln3rie8d6pwf"></polygon></g><path d="M160.72,217.81l3.08,4.32a4,4,0,0,1-3.54.53Z" style="fill: rgb(237, 137, 62); transform-origin: 162.03px 220.334px;" id="elc66gjn7o457" class="animable"></path><path d="M162.4,217.1c0,.58-.23,1.06-.61,1.09s-.74-.45-.76-1,.23-1.06.61-1.08S162.36,216.53,162.4,217.1Z" style="fill: rgb(26, 46, 53); transform-origin: 161.714px 217.15px;" id="elxyknjaerut" class="animable"></path><path d="M140,214.67c.15,7.67,0,10.92,3.74,15,5.74,4.25,15,4.3,17.11-3.27,1.93-6.8,1.37-18.17-6-21.57A10.47,10.47,0,0,0,140,214.67Z" style="fill: rgb(255, 195, 189); transform-origin: 150.897px 218.209px;" id="elvd2fa8giem" class="animable"></path><g id="elfn8gci44fq"><path d="M151.71,232.53l0-.38c.08-.83.82-2.41,1.64-2.23l3.21,1.69A10.19,10.19,0,0,1,151.71,232.53Z" style="fill: rgb(26, 46, 53); opacity: 0.2; transform-origin: 154.135px 231.226px;" class="animable" id="elcc3s6i78wf5"></path></g><path d="M160.19,214.6a.3.3,0,0,0,.26-.12,2.38,2.38,0,0,1,1.93-1,.3.3,0,0,0,.32-.28.31.31,0,0,0-.28-.32,3,3,0,0,0-2.45,1.22.31.31,0,0,0,.06.43h0A.31.31,0,0,0,160.19,214.6Z" style="fill: rgb(26, 46, 53); transform-origin: 161.305px 213.74px;" id="eld201zz8ygea" class="animable"></path><polygon points="151.89 230.58 149.81 242.09 139.21 240.68 142.64 228.83 151.89 230.58" style="fill: rgb(255, 195, 189); transform-origin: 145.55px 235.46px;" id="elfu9i81vi1t" class="animable"></polygon><path d="M151.64,237.2l3.59-2.07s-11.47-3.74-16.4-2.31-2.79,3.71-2.79,3.71Z" style="fill: #0064FF; transform-origin: 145.404px 234.847px;" id="elvzcwc21dh7" class="animable"></path><g id="el9d187rt149"><path d="M151.64,237.2l3.59-2.07s-11.47-3.74-16.4-2.31-2.79,3.71-2.79,3.71Z" style="opacity: 0.3; transform-origin: 145.404px 234.847px;" class="animable" id="elfpt1dlf7qnb"></path></g><g id="elv87il5utyvg"><path d="M136,236.53l15.6.67,2-1.14c-11-3.3-16.18-1.54-18-.5A2,2,0,0,0,136,236.53Z" style="opacity: 0.2; transform-origin: 144.6px 235.675px;" class="animable" id="elhji3qmax1iv"></path></g><path d="M138.64,253.34s5,19.08,7,20.94c1.24,1.19,23-1.33,23-1.33l6.06-2.13a3,3,0,0,1,3,.56c1.84,1.57,4.89,4.42,5,6.1a3,3,0,0,1-1.49,2.16c-1.25.35-4.72-2.13-4.72-2.13l-7.9.69s-19.64,5.9-25.39,5.34c-6.68-.65-12.82-24.72-12.82-24.72Z" style="fill: rgb(255, 139, 123); transform-origin: 156.54px 268.459px;" id="elrq6t5gcpjkh" class="animable"></path><path d="M138.64,253.34s5,19.08,7,20.94c1.24,1.19,23-1.33,23-1.33l6.06-2.13a3,3,0,0,1,3,.56c1.84,1.57,4.89,4.42,5,6.1a3,3,0,0,1-1.49,2.16c-1.25.35-4.72-2.13-4.72-2.13l-7.9.69s-19.64,5.9-25.39,5.34c-6.68-.65-12.82-24.72-12.82-24.72Z" style="fill: rgb(255, 195, 189); transform-origin: 156.54px 268.459px;" id="el1akkhlhb29f" class="animable"></path><g id="elqpxxsdgjmoa"><path d="M138.64,253.34s5,19.08,7,20.94c1.24,1.19,23-1.33,23-1.33l6.06-2.13a3,3,0,0,1,3,.56c1.84,1.57,4.89,4.42,5,6.1a3,3,0,0,1-1.49,2.16c-1.25.35-4.72-2.13-4.72-2.13l-7.9.69s-19.64,5.9-25.39,5.34c-6.68-.65-12.82-24.72-12.82-24.72Z" style="opacity: 0.1; transform-origin: 156.54px 268.459px;" class="animable" id="el0oelw5hcivyd"></path></g><path d="M131,239.29s5.67.67,9.88,19.53a25.26,25.26,0,0,0-9.43,5.28s-3.37-8.6-3.7-13.3A19.85,19.85,0,0,1,131,239.29Z" style="fill: #0064FF; transform-origin: 134.31px 251.695px;" id="elww7ngypeiab" class="animable"></path><g id="elyhafyf8961"><path d="M131,239.29s5.67.67,9.88,19.53a25.26,25.26,0,0,0-9.43,5.28s-3.37-8.6-3.7-13.3A19.85,19.85,0,0,1,131,239.29Z" style="opacity: 0.3; transform-origin: 134.31px 251.695px;" class="animable" id="elmbsfwi7rv9k"></path></g><path d="M161.82,242.53s-6.14,42.87-6.84,65.1c0,0-14,1.62-37.8,2,0,0-3.63-69.29,18.86-73.08C157,233,161.82,242.53,161.82,242.53Z" style="fill: #0064FF; transform-origin: 139.392px 272.694px;" id="elqp6apaf0k6" class="animable"></path><g id="el664ld8euwxt"><path d="M161.82,242.53s-6.14,42.87-6.84,65.1c0,0-14,1.62-37.8,2,0,0-3.63-69.29,18.86-73.08C157,233,161.82,242.53,161.82,242.53Z" style="opacity: 0.3; transform-origin: 139.392px 272.694px;" class="animable" id="el4azrv1i1mxm"></path></g><g id="elh7gg876tlzm"><path d="M156.83,244.62l3.44,9.35c-.46,3.51-1,7.64-1.52,12.09a40.5,40.5,0,0,1-3.09-21.38Z" style="opacity: 0.2; transform-origin: 157.803px 255.34px;" class="animable" id="el33hyhy1wz32"></path></g><path d="M167.6,250.33s6.91,11.1,9.43,12.4c1.61.84,18.43-3.32,18.43-3.32s4.8-4.93,6.94-5c2.53-.08,7.72,3,8.58,5.41a3.09,3.09,0,0,1-.86,2.62c-1.15.72-4.05-.91-5.4-.75-2.07.24-5.85,2.23-7.77,3.05-6.22,2.63-13.66,6.93-19.63,8.07-6.94,1.32-16.48-14.48-16.48-14.48Z" style="fill: rgb(255, 195, 189); transform-origin: 185.926px 261.609px;" id="elvljqplzrcib" class="animable"></path><path d="M156.15,239.3s8.59-3.56,17,16.78c0,0-4.48.18-10.36,7.54,0,0-4.76-7.09-6.49-11.74C154,245.68,156.15,239.3,156.15,239.3Z" style="fill: #0064FF; transform-origin: 164.194px 251.34px;" id="el5g5c9gi9os" class="animable"></path><g id="elutprixedne"><path d="M156.15,239.3s8.59-3.56,17,16.78c0,0-4.48.18-10.36,7.54,0,0-4.76-7.09-6.49-11.74C154,245.68,156.15,239.3,156.15,239.3Z" style="opacity: 0.3; transform-origin: 164.194px 251.34px;" class="animable" id="elpekt0f07w8"></path></g><path d="M149.72,230.17a23.3,23.3,0,0,0,4.64-11.59s2.76.26,3.15-1.93-3.67-8-3.67-8,4.47.28,5.16-2.56c.42-1.73.2-4.28-2.59-6.64-3.1-2.63-2.91,2.54-2.91,2.54s-2.25-4.37-4.71-5.09-.56,4.7-.56,4.7-2.83-2.23-5.27-1.24c-1.54.63-.12,3.87-.12,3.87s-5.6,2.28-6.32,4c-.84,2,.07,5.11.44,8.43.32,3,2,7.54,4.52,11.57a2.66,2.66,0,0,0,2.29,1.28A27.36,27.36,0,0,1,149.72,230.17Z" style="fill: rgb(38, 50, 56); transform-origin: 147.67px 213.502px;" id="el2ppvmhx12tf" class="animable"></path><g id="elvhiipifwh8l"><rect x="159.56" y="210.44" width="1" height="10.31" style="fill: #0064FF; transform-origin: 160.06px 215.595px; transform: rotate(-88.8542deg);" class="animable" id="el2mwf98h7nku"></rect></g><path d="M155.76,216.92a5.9,5.9,0,0,1-.15,4.52c-.87,1.88-1.9,1.44-3-.19-1-1.48-1.71-4.24-.19-5.6S155.06,215.13,155.76,216.92Z" style="fill: rgb(255, 195, 189); transform-origin: 153.84px 218.824px;" id="elwfjguz17qce" class="animable"></path><path d="M95.55,340.92c8.59,0,17.25-.31,25.83,0,13.68.49,12.82,14.33,13.51,24.17.71,10.19,1.56,20.38,2.14,30.58.38,6.7-3.43,12-10.48,12.32-3.37.13-6.78,0-10.16,0H85.93c-2.81,0-2.82,4.36,0,4.36h30.46c3.62,0,7.31.19,10.93,0a14.83,14.83,0,0,0,14.17-14.4c.26-10.09-1.38-20.52-2.08-30.58s.55-23-9.86-28.73c-5.15-2.85-11.49-2.06-17.17-2.06H95.55c-2.81,0-2.81,4.37,0,4.37Z" style="fill: rgb(38, 50, 56); transform-origin: 112.668px 374.457px;" id="el2g5ah7wr25h" class="animable"></path><g id="elnmo6bpxl7um"><g style="opacity: 0.5; transform-origin: 112.668px 374.457px;" class="animable" id="eln3gvkzx1uwq"><path d="M95.55,340.92c8.59,0,17.25-.31,25.83,0,13.68.49,12.82,14.33,13.51,24.17.71,10.19,1.56,20.38,2.14,30.58.38,6.7-3.43,12-10.48,12.32-3.37.13-6.78,0-10.16,0H85.93c-2.81,0-2.82,4.36,0,4.36h30.46c3.62,0,7.31.19,10.93,0a14.83,14.83,0,0,0,14.17-14.4c.26-10.09-1.38-20.52-2.08-30.58s.55-23-9.86-28.73c-5.15-2.85-11.49-2.06-17.17-2.06H95.55c-2.81,0-2.81,4.37,0,4.37Z" style="fill: rgb(255, 255, 255); transform-origin: 112.668px 374.457px;" id="el4d000rp2rcq" class="animable"></path></g></g><g id="el108rbcufrluo"><g style="opacity: 0.2; transform-origin: 112.668px 374.457px;" class="animable" id="elmkcjg7y18eb"><path d="M95.55,340.92c8.59,0,17.25-.31,25.83,0,13.68.49,12.82,14.33,13.51,24.17.71,10.19,1.56,20.38,2.14,30.58.38,6.7-3.43,12-10.48,12.32-3.37.13-6.78,0-10.16,0H85.93c-2.81,0-2.82,4.36,0,4.36h30.46c3.62,0,7.31.19,10.93,0a14.83,14.83,0,0,0,14.17-14.4c.26-10.09-1.38-20.52-2.08-30.58s.55-23-9.86-28.73c-5.15-2.85-11.49-2.06-17.17-2.06H95.55c-2.81,0-2.81,4.37,0,4.37Z" id="elynya5j8sc8s" class="animable" style="transform-origin: 112.668px 374.457px;"></path></g></g><g id="el4x7x0fifwiq"><path d="M129.55,338.61c-5.15-2.85-11.49-2.06-17.17-2.06H95.55c-2.81,0-2.81,4.37,0,4.37,8.59,0,17.25-.31,25.83,0a13.45,13.45,0,0,1,6.64,1.79h6.39A15.68,15.68,0,0,0,129.55,338.61Z" style="opacity: 0.2; transform-origin: 113.926px 339.58px;" class="animable" id="el28iihyuww1r"></path></g><path d="M88.84,327.56a104.09,104.09,0,0,1,23-3.16c8-.2,37.81,0,44.9,0a103.53,103.53,0,0,1,25.62,3.19c5.26,1.34,3.63,8.94-1.12,9-.42,0-90.61,0-90.94,0C85.28,336.8,83.46,328.93,88.84,327.56Z" style="fill: rgb(38, 50, 56); transform-origin: 135.599px 330.453px;" id="elm2l1xa9likq" class="animable"></path><path d="M179.86,336.42a94.21,94.21,0,0,0-46.35,0c-5.73,1.46-8.17-7.4-2.44-8.86a104.08,104.08,0,0,1,51.24,0c5.72,1.46,3.29,10.33-2.45,8.86Z" style="fill: rgb(38, 50, 56); transform-origin: 156.688px 330.471px;" id="elmw2g6po2bo" class="animable"></path><g id="elzy9km6yn7e"><path d="M179.86,336.42a94.21,94.21,0,0,0-46.35,0c-5.73,1.46-8.17-7.4-2.44-8.86a104.08,104.08,0,0,1,51.24,0c5.72,1.46,3.29,10.33-2.45,8.86Z" style="fill: rgb(255, 255, 255); opacity: 0.1; transform-origin: 156.688px 330.471px;" class="animable" id="elen90gav0q1"></path></g><path d="M112.55,261.83a2.79,2.79,0,0,1,2.53,1.46A98,98,0,0,1,127.36,331a2.49,2.49,0,0,1-2.36,2.21c-1.84.12-34.59,0-35.77,0a3.3,3.3,0,0,1-3.33-3.84,91.58,91.58,0,0,0-11.66-63c-1.4-2.33.66-4.51,2.75-4.55C77.94,261.81,110.46,261.87,112.55,261.83Z" style="fill: rgb(38, 50, 56); transform-origin: 101.356px 297.541px;" id="elhzlvuqklexu" class="animable"></path><g id="elgkvbuqx5lif"><path d="M112.55,261.83a2.79,2.79,0,0,1,2.53,1.46A98,98,0,0,1,127.36,331a2.49,2.49,0,0,1-2.36,2.21c-1.84.12-34.59,0-35.77,0a3.3,3.3,0,0,1-3.33-3.84,91.58,91.58,0,0,0-11.66-63c-1.4-2.33.66-4.51,2.75-4.55C77.94,261.81,110.46,261.87,112.55,261.83Z" style="fill: rgb(255, 255, 255); opacity: 0.1; transform-origin: 101.356px 297.541px;" class="animable" id="el0liyxztxbak"></path></g><path d="M121.45,329.34a91.47,91.47,0,0,0-11.66-63c-2-3.39,3.26-6.47,5.29-3.09A98,98,0,0,1,127.36,331c-.7,3.88-6.6,2.24-5.91-1.62Z" style="fill: rgb(38, 50, 56); transform-origin: 119.141px 297.502px;" id="elqxihb1wcvt" class="animable"></path><path d="M137.19,340.92c8.6,0,17.25-.31,25.84,0,13.68.49,12.82,14.33,13.5,24.17.72,10.19,1.56,20.38,2.14,30.58.38,6.7-3.43,12-10.47,12.32-3.38.13-6.79,0-10.17,0H127.57c-2.81,0-2.81,4.36,0,4.36H158c3.63,0,7.31.19,10.94,0a14.82,14.82,0,0,0,14.16-14.4c.27-10.09-1.37-20.52-2.07-30.58s.55-23-9.86-28.73c-5.16-2.85-11.5-2.06-17.17-2.06H137.19c-2.8,0-2.81,4.37,0,4.37Z" style="fill: rgb(38, 50, 56); transform-origin: 154.296px 374.457px;" id="ela2a8vevwati" class="animable"></path><g id="el24krxeqh349"><g style="opacity: 0.5; transform-origin: 154.296px 374.457px;" class="animable" id="elwz1hfpwqk1h"><path d="M137.19,340.92c8.6,0,17.25-.31,25.84,0,13.68.49,12.82,14.33,13.5,24.17.72,10.19,1.56,20.38,2.14,30.58.38,6.7-3.43,12-10.47,12.32-3.38.13-6.79,0-10.17,0H127.57c-2.81,0-2.81,4.36,0,4.36H158c3.63,0,7.31.19,10.94,0a14.82,14.82,0,0,0,14.16-14.4c.27-10.09-1.37-20.52-2.07-30.58s.55-23-9.86-28.73c-5.16-2.85-11.5-2.06-17.17-2.06H137.19c-2.8,0-2.81,4.37,0,4.37Z" style="fill: rgb(255, 255, 255); transform-origin: 154.296px 374.457px;" id="eltfhezx4qwh" class="animable"></path></g></g><g id="elj7kajnxp28b"><path d="M171.2,338.61c-5.16-2.85-11.5-2.06-17.17-2.06H137.19c-2.8,0-2.81,4.37,0,4.37,8.6,0,17.25-.31,25.84,0a13.48,13.48,0,0,1,6.64,1.79h6.39A15.91,15.91,0,0,0,171.2,338.61Z" style="opacity: 0.2; transform-origin: 155.573px 339.58px;" class="animable" id="ellkwqq25waw"></path></g></g><g id="freepik--Screen--inject-31" class="animable" style="transform-origin: 250px 148.37px;"><rect x="168.78" y="91.15" width="162.44" height="114.44" rx="9.06" style="fill: #0064FF; transform-origin: 250px 148.37px;" id="el3ie807ztepx" class="animable"></rect><g id="eln6eipn2hy8a"><rect x="168.78" y="91.15" width="162.44" height="114.44" rx="9.06" style="fill: rgb(255, 255, 255); opacity: 0.8; transform-origin: 250px 148.37px;" class="animable" id="eltm5ccfyfff"></rect></g><path d="M322.16,207.59H177.84a11.07,11.07,0,0,1-11.06-11.06V100.21a11.07,11.07,0,0,1,11.06-11.06H322.16a11.07,11.07,0,0,1,11.06,11.06v96.32A11.07,11.07,0,0,1,322.16,207.59ZM177.84,93.15a7.07,7.07,0,0,0-7.06,7.06v96.32a7.07,7.07,0,0,0,7.06,7.06H322.16a7.07,7.07,0,0,0,7.06-7.06V100.21a7.07,7.07,0,0,0-7.06-7.06Z" style="fill: rgb(38, 50, 56); transform-origin: 250px 148.37px;" id="elhx3rx57agms" class="animable"></path><rect x="199.91" y="98.28" width="100.19" height="100.19" style="fill: rgb(38, 50, 56); transform-origin: 250.005px 148.375px;" id="el8o5bnl45b3m" class="animable"></rect><rect x="199.91" y="98.28" width="100.19" height="100.19" style="fill: rgb(255, 255, 255); transform-origin: 250.005px 148.375px;" id="elzknzxo99ihj" class="animable"></rect><rect x="212.43" y="98.28" width="12.52" height="12.52" style="fill: #0064FF; transform-origin: 218.69px 104.54px;" id="el2fgieiqvfo3" class="animable"></rect><rect x="237.48" y="98.28" width="12.52" height="12.52" style="fill: #0064FF; transform-origin: 243.74px 104.54px;" id="elhpalgpd3moa" class="animable"></rect><rect x="262.52" y="98.28" width="12.52" height="12.52" style="fill: #0064FF; transform-origin: 268.78px 104.54px;" id="elu0kdu816n1m" class="animable"></rect><rect x="287.57" y="98.28" width="12.52" height="12.52" style="fill: #0064FF; transform-origin: 293.83px 104.54px;" id="elhmwsmuexno" class="animable"></rect><rect x="199.91" y="110.8" width="12.52" height="12.52" style="fill: #0064FF; transform-origin: 206.17px 117.06px;" id="elbgbchk14c4u" class="animable"></rect><rect x="224.95" y="110.8" width="12.52" height="12.52" style="fill: #0064FF; transform-origin: 231.21px 117.06px;" id="eluy2xvelmlwa" class="animable"></rect><rect x="250" y="110.8" width="12.52" height="12.52" style="fill: #0064FF; transform-origin: 256.26px 117.06px;" id="elhf4bve88v4w" class="animable"></rect><rect x="275.05" y="110.8" width="12.52" height="12.52" style="fill: #0064FF; transform-origin: 281.31px 117.06px;" id="el7lkjlloy6y9" class="animable"></rect><rect x="212.43" y="123.33" width="12.52" height="12.52" style="fill: #0064FF; transform-origin: 218.69px 129.59px;" id="el66w0ohnv5gl" class="animable"></rect><rect x="237.48" y="123.33" width="12.52" height="12.52" style="fill: #0064FF; transform-origin: 243.74px 129.59px;" id="el7j0ysyzywdp" class="animable"></rect><rect x="262.52" y="123.33" width="12.52" height="12.52" style="fill: #0064FF; transform-origin: 268.78px 129.59px;" id="elwf6dhtnusjc" class="animable"></rect><rect x="287.57" y="123.33" width="12.52" height="12.52" style="fill: #0064FF; transform-origin: 293.83px 129.59px;" id="el2cemj5cn39y" class="animable"></rect><rect x="199.91" y="135.85" width="12.52" height="12.52" style="fill: #0064FF; transform-origin: 206.17px 142.11px;" id="el2nnpelh40g2" class="animable"></rect><rect x="224.95" y="135.85" width="12.52" height="12.52" style="fill: #0064FF; transform-origin: 231.21px 142.11px;" id="el1bbu6uz63hn" class="animable"></rect><rect x="250" y="135.85" width="12.52" height="12.52" style="fill: #0064FF; transform-origin: 256.26px 142.11px;" id="eloaa4pdn9jc" class="animable"></rect><rect x="275.05" y="135.85" width="12.52" height="12.52" style="fill: #0064FF; transform-origin: 281.31px 142.11px;" id="elkio5dk93v3l" class="animable"></rect><rect x="212.43" y="148.37" width="12.52" height="12.52" style="fill: #0064FF; transform-origin: 218.69px 154.63px;" id="elul84ve82ivl" class="animable"></rect><rect x="237.48" y="148.37" width="12.52" height="12.52" style="fill: #0064FF; transform-origin: 243.74px 154.63px;" id="elmzmcxvf96zg" class="animable"></rect><rect x="262.52" y="148.37" width="12.52" height="12.52" style="fill: #0064FF; transform-origin: 268.78px 154.63px;" id="el1klceug2w5wh" class="animable"></rect><rect x="287.57" y="148.37" width="12.52" height="12.52" style="fill: #0064FF; transform-origin: 293.83px 154.63px;" id="elrzn0kybdc3" class="animable"></rect><rect x="199.91" y="160.9" width="12.52" height="12.52" style="fill: #0064FF; transform-origin: 206.17px 167.16px;" id="elchcxr9yrmsl" class="animable"></rect><rect x="224.95" y="160.9" width="12.52" height="12.52" style="fill: #0064FF; transform-origin: 231.21px 167.16px;" id="els7w6tv685m" class="animable"></rect><rect x="250" y="160.9" width="12.52" height="12.52" style="fill: #0064FF; transform-origin: 256.26px 167.16px;" id="ellylo1z1oe8" class="animable"></rect><rect x="275.05" y="160.9" width="12.52" height="12.52" style="fill: #0064FF; transform-origin: 281.31px 167.16px;" id="elrkx5hrsvjrq" class="animable"></rect><rect x="212.43" y="173.42" width="12.52" height="12.52" style="fill: #0064FF; transform-origin: 218.69px 179.68px;" id="eljtoayrdjvhn" class="animable"></rect><rect x="237.48" y="173.42" width="12.52" height="12.52" style="fill: #0064FF; transform-origin: 243.74px 179.68px;" id="eln584xngabxl" class="animable"></rect><rect x="262.52" y="173.42" width="12.52" height="12.52" style="fill: #0064FF; transform-origin: 268.78px 179.68px;" id="elvt26q4nkig" class="animable"></rect><rect x="287.57" y="173.42" width="12.52" height="12.52" style="fill: #0064FF; transform-origin: 293.83px 179.68px;" id="elqex76rn4lj" class="animable"></rect><rect x="199.91" y="185.94" width="12.52" height="12.52" style="fill: #0064FF; transform-origin: 206.17px 192.2px;" id="el67aivus7x5" class="animable"></rect><rect x="224.95" y="185.94" width="12.52" height="12.52" style="fill: #0064FF; transform-origin: 231.21px 192.2px;" id="elynhirgvoyw" class="animable"></rect><rect x="250" y="185.94" width="12.52" height="12.52" style="fill: #0064FF; transform-origin: 256.26px 192.2px;" id="elaev59i2xh8a" class="animable"></rect><rect x="275.05" y="185.94" width="12.52" height="12.52" style="fill: #0064FF; transform-origin: 281.31px 192.2px;" id="elcx7plikpni" class="animable"></rect><g id="els48ozma80j"><g style="opacity: 0.3; transform-origin: 250px 148.37px;" class="animable" id="el1vvovlgmwcf"><rect x="212.43" y="98.28" width="12.52" height="12.52" id="eli9v21fqlh9" class="animable" style="transform-origin: 218.69px 104.54px;"></rect><rect x="237.48" y="98.28" width="12.52" height="12.52" id="els8ndz6jny9f" class="animable" style="transform-origin: 243.74px 104.54px;"></rect><rect x="262.52" y="98.28" width="12.52" height="12.52" id="elmo7kgiuzvl" class="animable" style="transform-origin: 268.78px 104.54px;"></rect><rect x="287.57" y="98.28" width="12.52" height="12.52" id="ellufaesem0er" class="animable" style="transform-origin: 293.83px 104.54px;"></rect><rect x="199.91" y="110.8" width="12.52" height="12.52" id="elde2tu5hq7wn" class="animable" style="transform-origin: 206.17px 117.06px;"></rect><rect x="224.95" y="110.8" width="12.52" height="12.52" id="elxulb3asqtrb" class="animable" style="transform-origin: 231.21px 117.06px;"></rect><rect x="250" y="110.8" width="12.52" height="12.52" id="elqwmao6chzjq" class="animable" style="transform-origin: 256.26px 117.06px;"></rect><rect x="275.05" y="110.8" width="12.52" height="12.52" id="el2logluk1n1j" class="animable" style="transform-origin: 281.31px 117.06px;"></rect><rect x="212.43" y="123.33" width="12.52" height="12.52" id="elgshvs43p81c" class="animable" style="transform-origin: 218.69px 129.59px;"></rect><rect x="237.48" y="123.33" width="12.52" height="12.52" id="el56p4yb1ol4x" class="animable" style="transform-origin: 243.74px 129.59px;"></rect><rect x="262.52" y="123.33" width="12.52" height="12.52" id="el6y9mp7q03tf" class="animable" style="transform-origin: 268.78px 129.59px;"></rect><rect x="287.57" y="123.33" width="12.52" height="12.52" id="elghaeawa416o" class="animable" style="transform-origin: 293.83px 129.59px;"></rect><rect x="199.91" y="135.85" width="12.52" height="12.52" id="elcozgm0jdb2l" class="animable" style="transform-origin: 206.17px 142.11px;"></rect><rect x="224.95" y="135.85" width="12.52" height="12.52" id="elw2nocrtz4k" class="animable" style="transform-origin: 231.21px 142.11px;"></rect><rect x="250" y="135.85" width="12.52" height="12.52" id="el4ttlehpa39j" class="animable" style="transform-origin: 256.26px 142.11px;"></rect><rect x="275.05" y="135.85" width="12.52" height="12.52" id="elffxgya82wzb" class="animable" style="transform-origin: 281.31px 142.11px;"></rect><rect x="212.43" y="148.37" width="12.52" height="12.52" id="elvedttsp66v" class="animable" style="transform-origin: 218.69px 154.63px;"></rect><rect x="237.48" y="148.37" width="12.52" height="12.52" id="elv2bbyilrlr" class="animable" style="transform-origin: 243.74px 154.63px;"></rect><rect x="262.52" y="148.37" width="12.52" height="12.52" id="elcaoscub82lq" class="animable" style="transform-origin: 268.78px 154.63px;"></rect><rect x="287.57" y="148.37" width="12.52" height="12.52" id="elr8skb7t726c" class="animable" style="transform-origin: 293.83px 154.63px;"></rect><rect x="199.91" y="160.9" width="12.52" height="12.52" id="el699dm5qkra5" class="animable" style="transform-origin: 206.17px 167.16px;"></rect><rect x="224.95" y="160.9" width="12.52" height="12.52" id="elnpa9xbpekj" class="animable" style="transform-origin: 231.21px 167.16px;"></rect><rect x="250" y="160.9" width="12.52" height="12.52" id="elno578la2p" class="animable" style="transform-origin: 256.26px 167.16px;"></rect><rect x="275.05" y="160.9" width="12.52" height="12.52" id="el71c5y8flz34" class="animable" style="transform-origin: 281.31px 167.16px;"></rect><rect x="212.43" y="173.42" width="12.52" height="12.52" id="el9uzyhf7m2k" class="animable" style="transform-origin: 218.69px 179.68px;"></rect><rect x="237.48" y="173.42" width="12.52" height="12.52" id="elrkvw9mgrykg" class="animable" style="transform-origin: 243.74px 179.68px;"></rect><rect x="262.52" y="173.42" width="12.52" height="12.52" id="el6gp1h3ozybq" class="animable" style="transform-origin: 268.78px 179.68px;"></rect><rect x="287.57" y="173.42" width="12.52" height="12.52" id="eloot6gd1ebes" class="animable" style="transform-origin: 293.83px 179.68px;"></rect><rect x="199.91" y="185.94" width="12.52" height="12.52" id="elg7f3e095qsw" class="animable" style="transform-origin: 206.17px 192.2px;"></rect><rect x="224.95" y="185.94" width="12.52" height="12.52" id="elrt8jr96o96o" class="animable" style="transform-origin: 231.21px 192.2px;"></rect><rect x="250" y="185.94" width="12.52" height="12.52" id="elvlvoxtggce" class="animable" style="transform-origin: 256.26px 192.2px;"></rect><rect x="275.05" y="185.94" width="12.52" height="12.52" id="eluisij63m5i9" class="animable" style="transform-origin: 281.31px 192.2px;"></rect></g></g><path d="M233.8,134.26v-1.48c-1.92-1.15-1.45-4.68-1.27-5.66h.19a.27.27,0,0,0,.27-.27.28.28,0,0,0-.15-.24l1-.87v-1.4H233v.52h-.91v-.52h-1.73v.52h-.91v-.52h-.83v1.4l1,.87a.28.28,0,0,0-.15.24.27.27,0,0,0,.27.27h.19c.17,1,.65,4.51-1.27,5.66v1.48l-.58.57h6.33Z" style="fill: rgb(38, 50, 56); transform-origin: 231.245px 129.585px;" id="el1u0cbunmfu7" class="animable"></path><path d="M258.85,159v-1.47c-1.92-1.15-1.45-4.69-1.28-5.66h.2a.27.27,0,0,0,.27-.27.28.28,0,0,0-.15-.24l1-.87v-1.4H258v.52h-.91v-.52H255.4v.52h-.91v-.52h-.83v1.4l1,.87a.28.28,0,0,0-.15.24.27.27,0,0,0,.27.27H255c.17,1,.65,4.51-1.27,5.66V159l-.58.58h6.32Z" style="fill: rgb(38, 50, 56); transform-origin: 256.31px 154.335px;" id="el3k4efunvfth" class="animable"></path><g id="el6lpaavnch0e"><path d="M258.85,159v-1.47c-1.92-1.15-1.45-4.69-1.28-5.66h.2a.27.27,0,0,0,.27-.27.28.28,0,0,0-.15-.24l1-.87v-1.4H258v.52h-.91v-.52H255.4v.52h-.91v-.52h-.83v1.4l1,.87a.28.28,0,0,0-.15.24.27.27,0,0,0,.27.27H255c.17,1,.65,4.51-1.27,5.66V159l-.58.58h6.32Z" style="fill: rgb(255, 255, 255); opacity: 0.7; transform-origin: 256.31px 154.335px;" class="animable" id="elknp1jhgnut"></path></g><path d="M281.3,125l-.46-.47a.33.33,0,0,1,0,.45.31.31,0,0,1-.45,0l.46.47a.33.33,0,0,0,.45,0A.31.31,0,0,0,281.3,125Z" style="fill: rgb(38, 50, 56); transform-origin: 280.893px 125.034px;" id="el422ijqodaxi" class="animable"></path><g id="el47tzkqgypjm"><path d="M281.3,125l-.46-.47a.33.33,0,0,1,0,.45.31.31,0,0,1-.45,0l.46.47a.33.33,0,0,0,.45,0A.31.31,0,0,0,281.3,125Z" style="fill: rgb(255, 255, 255); opacity: 0.2; transform-origin: 280.893px 125.034px;" class="animable" id="elrx8n9a0cpsl"></path></g><path d="M283.59,134.44V133c-1.92-1.15-1.45-4.68-1.28-5.66h.2a.27.27,0,0,0,.27-.27.28.28,0,0,0-.15-.24h-1a1.21,1.21,0,0,0,.82-1.17c0-.8-1.46-2.16-1.46-2.16s-.29.27-.61.64l.91.92a.31.31,0,0,1,0,.45.33.33,0,0,1-.45,0l-.86-.86a2,2,0,0,0-.44,1,1.2,1.2,0,0,0,.82,1.17h-1a.28.28,0,0,0-.15.24.27.27,0,0,0,.27.27h.19c.17,1,.65,4.51-1.27,5.66v1.48l-.58.57h6.32Z" style="fill: rgb(38, 50, 56); transform-origin: 280.98px 129.27px;" id="elg04c7x2uoa" class="animable"></path><path d="M294.13,162.52l-.46-.46a.32.32,0,1,1-.45.45l.46.46a.32.32,0,0,0,.45-.45Z" style="fill: rgb(38, 50, 56); transform-origin: 293.711px 162.551px;" id="elq16xhjqcvi" class="animable"></path><g id="eltohwoajuxu"><path d="M294.13,162.52l-.46-.46a.32.32,0,1,1-.45.45l.46.46a.32.32,0,0,0,.45-.45Z" style="fill: rgb(255, 255, 255); opacity: 0.5; transform-origin: 293.711px 162.551px;" class="animable" id="elto39rhyysc"></path></g><path d="M296.42,171.94v-1.48c-1.92-1.14-1.45-4.68-1.28-5.65h.2a.27.27,0,0,0,.27-.27.26.26,0,0,0-.15-.24h-1a1.22,1.22,0,0,0,.82-1.17c0-.81-1.46-2.17-1.46-2.17a8.2,8.2,0,0,0-.61.65l.91.91a.32.32,0,0,1-.45.45l-.86-.86a2,2,0,0,0-.44,1,1.21,1.21,0,0,0,.82,1.17h-1a.26.26,0,0,0-.15.24.27.27,0,0,0,.27.27h.19c.17,1,.65,4.51-1.27,5.65v1.48l-.58.58H297Z" style="fill: rgb(38, 50, 56); transform-origin: 293.825px 166.73px;" id="elssd3t9lge4" class="animable"></path><g id="elizswnixglp"><path d="M296.42,171.94v-1.48c-1.92-1.14-1.45-4.68-1.28-5.65h.2a.27.27,0,0,0,.27-.27.26.26,0,0,0-.15-.24h-1a1.22,1.22,0,0,0,.82-1.17c0-.81-1.46-2.17-1.46-2.17a8.2,8.2,0,0,0-.61.65l.91.91a.32.32,0,0,1-.45.45l-.86-.86a2,2,0,0,0-.44,1,1.21,1.21,0,0,0,.82,1.17h-1a.26.26,0,0,0-.15.24.27.27,0,0,0,.27.27h.19c.17,1,.65,4.51-1.27,5.65v1.48l-.58.58H297Z" style="fill: rgb(255, 255, 255); opacity: 0.7; transform-origin: 293.825px 166.73px;" class="animable" id="elvzh0xm4k3q8"></path></g><path d="M266.37,119.81v1.48l-.58.57h6.32l-.57-.57v-1.48c-1.92-1.15,0-3.31,0-5.48,0-1.79-1.7-2-2.92-1.84l-.94-.23.16.35a3.22,3.22,0,0,0-.41.09l.18.58a3.77,3.77,0,0,0-1,.77c-.29.43-.6.2-1,.85s.18.83.18.83c.71-.34.13.14.13.14a7.19,7.19,0,0,0,1.93-.29C268,116.55,268.29,118.66,266.37,119.81Z" style="fill: rgb(38, 50, 56); transform-origin: 268.79px 117.06px;" id="elwt4s80p8pab" class="animable"></path><path d="M208.31,196.22V195c-1.59-.95-1.2-3.88-1.06-4.68h.16a.23.23,0,0,0,.23-.23.21.21,0,0,0-.13-.2h-.09a1.66,1.66,0,0,0,.43-1.12,1.69,1.69,0,1,0-3.37,0,1.71,1.71,0,0,0,.43,1.12h-.09a.2.2,0,0,0-.12.2.22.22,0,0,0,.22.23h.16c.14.8.54,3.73-1.05,4.68v1.22l-.48.48h5.23Z" style="fill: rgb(38, 50, 56); transform-origin: 206.165px 191.825px;" id="elygjm26y6b4s" class="animable"></path><g id="el46y3ufkx8hw"><path d="M208.31,196.22V195c-1.59-.95-1.2-3.88-1.06-4.68h.16a.23.23,0,0,0,.23-.23.21.21,0,0,0-.13-.2h-.09a1.66,1.66,0,0,0,.43-1.12,1.69,1.69,0,1,0-3.37,0,1.71,1.71,0,0,0,.43,1.12h-.09a.2.2,0,0,0-.12.2.22.22,0,0,0,.22.23h.16c.14.8.54,3.73-1.05,4.68v1.22l-.48.48h5.23Z" style="fill: rgb(255, 255, 255); opacity: 0.7; transform-origin: 206.165px 191.825px;" class="animable" id="eleqginmslks"></path></g><path d="M233.28,171.08v-1.23c-1.59-.95-1.2-3.87-1.05-4.68h.16a.22.22,0,0,0,.22-.22.19.19,0,0,0-.12-.2l-.09,0a1.71,1.71,0,0,0,.43-1.12,1.69,1.69,0,1,0-3,1.12l-.09,0a.21.21,0,0,0-.12.2.22.22,0,0,0,.23.22h.15c.15.81.54,3.73-1.05,4.68v1.23l-.48.47h5.24Z" style="fill: rgb(38, 50, 56); transform-origin: 231.09px 166.772px;" id="el5p6ggsz23ta" class="animable"></path><g id="elgkvuqfbc3nh"><path d="M233.28,171.08v-1.23c-1.59-.95-1.2-3.87-1.05-4.68h.16a.22.22,0,0,0,.22-.22.19.19,0,0,0-.12-.2l-.09,0a1.71,1.71,0,0,0,.43-1.12,1.69,1.69,0,1,0-3,1.12l-.09,0a.21.21,0,0,0-.12.2.22.22,0,0,0,.23.22h.15c.15.81.54,3.73-1.05,4.68v1.23l-.48.47h5.24Z" style="fill: rgb(255, 255, 255); opacity: 0.7; transform-origin: 231.09px 166.772px;" class="animable" id="elv639givxzcd"></path></g><path d="M270.93,184V182.8c-1.59-1-1.2-3.88-1.06-4.69H270a.22.22,0,0,0,.22-.22.19.19,0,0,0-.12-.2l-.09,0a1.68,1.68,0,0,0-1.25-2.8,1.69,1.69,0,0,0-1.69,1.68,1.66,1.66,0,0,0,.43,1.12l-.09,0a.19.19,0,0,0-.12.2.22.22,0,0,0,.22.22h.16c.14.81.53,3.74-1.05,4.69V184l-.48.48h5.23Z" style="fill: rgb(38, 50, 56); transform-origin: 268.755px 179.685px;" id="elt40a7tjzazi" class="animable"></path><g id="el6efz5x7iz49"><path d="M270.93,184V182.8c-1.59-1-1.2-3.88-1.06-4.69H270a.22.22,0,0,0,.22-.22.19.19,0,0,0-.12-.2l-.09,0a1.68,1.68,0,0,0-1.25-2.8,1.69,1.69,0,0,0-1.69,1.68,1.66,1.66,0,0,0,.43,1.12l-.09,0a.19.19,0,0,0-.12.2.22.22,0,0,0,.22.22h.16c.14.81.53,3.74-1.05,4.69V184l-.48.48h5.23Z" style="fill: rgb(255, 255, 255); opacity: 0.7; transform-origin: 268.755px 179.685px;" class="animable" id="el451hl7qxlgr"></path></g><path d="M220.83,171.08v-1.23c-1.59-.95-1.19-3.87-1.05-4.68h.16a.22.22,0,0,0,.22-.22.19.19,0,0,0-.12-.2l-.09,0a1.71,1.71,0,0,0,.43-1.12,1.69,1.69,0,1,0-2.95,1.12l-.08,0a.2.2,0,0,0-.13.2.22.22,0,0,0,.23.22h.15c.15.81.54,3.73-1,4.68v1.23l-.48.47h5.24Z" style="fill: rgb(38, 50, 56); transform-origin: 218.74px 166.742px;" id="elbr7bjokecm6" class="animable"></path><path d="M246.25,158.27v-1.43c-1.87-1.11-1.61-4.55-1.45-5.5h.4a.26.26,0,0,0,.26-.26.23.23,0,0,0-.14-.23l-.11,0-.62,0a7.37,7.37,0,0,1,.52-2.71H244l-.14-.92.78.17v-.64l-.78.18.18-.78h-.64l.17.78-.77-.18v.64l.77-.17-.13.92h-1.09a7.81,7.81,0,0,1,.52,2.71l-.63,0-.1,0a.23.23,0,0,0-.15.23.26.26,0,0,0,.27.26h.39c.17.95.42,4.39-1.44,5.5v1.43l-.56.56h6.14Z" style="fill: rgb(38, 50, 56); transform-origin: 243.72px 152.49px;" id="elxh9ihc2jsj" class="animable"></path><g id="elq2xigrrw9pm"><path d="M246.25,158.27v-1.43c-1.87-1.11-1.61-4.55-1.45-5.5h.4a.26.26,0,0,0,.26-.26.23.23,0,0,0-.14-.23l-.11,0-.62,0a7.37,7.37,0,0,1,.52-2.71H244l-.14-.92.78.17v-.64l-.78.18.18-.78h-.64l.17.78-.77-.18v.64l.77-.17-.13.92h-1.09a7.81,7.81,0,0,1,.52,2.71l-.63,0-.1,0a.23.23,0,0,0-.15.23.26.26,0,0,0,.27.26h.39c.17.95.42,4.39-1.44,5.5v1.43l-.56.56h6.14Z" style="fill: rgb(255, 255, 255); opacity: 0.7; transform-origin: 243.72px 152.49px;" class="animable" id="elfwxyzr9ons4"></path></g><path d="M257.77,134.45V133c-1.86-1.12-1.61-4.55-1.44-5.5h.39a.27.27,0,0,0,.27-.26.23.23,0,0,0-.15-.23l-.1,0c-.18,0-.39,0-.63,0a7.81,7.81,0,0,1,.52-2.71h-1.09l-.13-.92.77.17v-.64l-.77.18.17-.78h-.64l.18.78-.78-.18v.64l.78-.17-.14.92h-1.09a7.37,7.37,0,0,1,.52,2.71c-.24,0-.45,0-.62,0l-.11,0a.23.23,0,0,0-.14.23.26.26,0,0,0,.26.26h.4c.16,1,.42,4.38-1.45,5.5v1.43l-.56.56h6.14Z" style="fill: rgb(38, 50, 56); transform-origin: 255.26px 128.65px;" id="elmgi2kf2rzod" class="animable"></path></g><defs>     <filter id="active" height="200%">         <feMorphology in="SourceAlpha" result="DILATED" operator="dilate" radius="2"></feMorphology>                <feFlood flood-color="#32DFEC" flood-opacity="1" result="PINK"></feFlood>        <feComposite in="PINK" in2="DILATED" operator="in" result="OUTLINE"></feComposite>        <feMerge>            <feMergeNode in="OUTLINE"></feMergeNode>            <feMergeNode in="SourceGraphic"></feMergeNode>        </feMerge>    </filter>    <filter id="hover" height="200%">        <feMorphology in="SourceAlpha" result="DILATED" operator="dilate" radius="2"></feMorphology>                <feFlood flood-color="#ff0000" flood-opacity="0.5" result="PINK"></feFlood>        <feComposite in="PINK" in2="DILATED" operator="in" result="OUTLINE"></feComposite>        <feMerge>            <feMergeNode in="OUTLINE"></feMergeNode>            <feMergeNode in="SourceGraphic"></feMergeNode>        </feMerge>            <feColorMatrix type="matrix" values="0   0   0   0   0                0   1   0   0   0                0   0   0   0   0                0   0   0   1   0 "></feColorMatrix>    </filter></defs></svg>