<svg class="animated" id="freepik_stories-press-pause" xmlns="http://www.w3.org/2000/svg" viewBox="0 0 500 500" version="1.1" xmlns:xlink="http://www.w3.org/1999/xlink" xmlns:svgjs="http://svgjs.com/svgjs"><style>svg#freepik_stories-press-pause:not(.animated) .animable {opacity: 0;}svg#freepik_stories-press-pause.animated #freepik--background-complete--inject-48 {animation: 1s 1 forwards cubic-bezier(.36,-0.01,.5,1.38) slideUp;animation-delay: 0s;}svg#freepik_stories-press-pause.animated #freepik--Screen--inject-48 {animation: 1s 1 forwards cubic-bezier(.36,-0.01,.5,1.38) zoomIn;animation-delay: 0s;}svg#freepik_stories-press-pause.animated #freepik--Button--inject-48 {animation: 1s 1 forwards cubic-bezier(.36,-0.01,.5,1.38) zoomIn,1.5s Infinite  linear heartbeat;animation-delay: 0s,1s;}svg#freepik_stories-press-pause.animated #freepik--Plant--inject-48 {animation: 1s 1 forwards cubic-bezier(.36,-0.01,.5,1.38) slideRight;animation-delay: 0s;}svg#freepik_stories-press-pause.animated #freepik--Character--inject-48 {animation: 1s 1 forwards cubic-bezier(.36,-0.01,.5,1.38) slideLeft,1.5s Infinite  linear wind;animation-delay: 0s,1s;}            @keyframes slideUp {                0% {                    opacity: 0;                    transform: translateY(30px);                }                100% {                    opacity: 1;                    transform: inherit;                }            }                    @keyframes zoomIn {                0% {                    opacity: 0;                    transform: scale(0.5);                }                100% {                    opacity: 1;                    transform: scale(1);                }            }                    @keyframes heartbeat {                0% {                    transform: scale(1);                }                10% {                    transform: scale(1.1);                }                30% {                    transform: scale(1);                }                40% {                    transform: scale(1);                }                50% {                    transform: scale(1.1);                }                60% {                    transform: scale(1);                }                100% {                    transform: scale(1);                }            }                    @keyframes slideRight {                0% {                    opacity: 0;                    transform: translateX(30px);                }                100% {                    opacity: 1;                    transform: translateX(0);                }            }                    @keyframes slideLeft {                0% {                    opacity: 0;                    transform: translateX(-30px);                }                100% {                    opacity: 1;                    transform: translateX(0);                }            }                    @keyframes wind {                0% {                    transform: rotate( 0deg );                }                25% {                    transform: rotate( 1deg );                }                75% {                    transform: rotate( -1deg );                }            }        </style><g id="freepik--background-complete--inject-48" class="animable animator-active" style="transform-origin: 248.005px 249.62px;"><path d="M271.76,282.36V256.31a1.61,1.61,0,0,1,2.39-1.44L296.69,268a1.68,1.68,0,0,1,0,2.89l-22.54,12.93A1.61,1.61,0,0,1,271.76,282.36Z" style="fill: rgb(224, 224, 224); transform-origin: 284.636px 269.345px;" id="elxor8mk9t7fe" class="animable"></path><path d="M313.62,282.85v-26a1.66,1.66,0,0,1,2.47-1.45l23.27,13.13a1.65,1.65,0,0,1,0,2.89L316.08,284.3A1.66,1.66,0,0,1,313.62,282.85Z" style="fill: rgb(224, 224, 224); transform-origin: 326.917px 269.847px;" id="elm1yy3v62zkm" class="animable"></path><path d="M328.25,282.85v-26c0-1.27,1.16-2.07,2.11-1.45l19.87,13.13a1.8,1.8,0,0,1,0,2.89L330.35,284.3C329.41,284.91,328.25,284.11,328.25,282.85Z" style="fill: rgb(224, 224, 224); transform-origin: 339.603px 269.847px;" id="el759hat8yvvh" class="animable"></path><path d="M219.28,256.81v26a1.65,1.65,0,0,1-2.47,1.44l-23.27-13.12a1.65,1.65,0,0,1,0-2.89l23.27-12.92A1.65,1.65,0,0,1,219.28,256.81Z" style="fill: rgb(224, 224, 224); transform-origin: 205.984px 269.785px;" id="elg4yve2ko1mq" class="animable"></path><path d="M204.65,256.81v26c0,1.27-1.16,2.07-2.11,1.44l-19.88-13.12a1.81,1.81,0,0,1,0-2.89l19.88-12.92C203.49,254.75,204.65,255.54,204.65,256.81Z" style="fill: rgb(224, 224, 224); transform-origin: 193.295px 269.801px;" id="elvzqf903ba0g" class="animable"></path><rect x="235.34" y="254.45" width="7.36" height="29.77" rx="2.84" style="fill: rgb(224, 224, 224); transform-origin: 239.02px 269.335px;" id="eljsssqqylte" class="animable"></rect><rect x="248.34" y="254.45" width="7.36" height="29.77" rx="2.84" style="fill: rgb(224, 224, 224); transform-origin: 252.02px 269.335px;" id="elwqn4k735lcb" class="animable"></rect><rect x="382.25" y="32.93" width="92.89" height="153.76" style="fill: rgb(224, 224, 224); transform-origin: 428.695px 109.81px;" id="elqdwra9jexe" class="animable"></rect><rect x="379.16" y="32.93" width="92.89" height="153.76" style="fill: rgb(235, 235, 235); transform-origin: 425.605px 109.81px;" id="elosmr5vd1udh" class="animable"></rect><rect x="383.12" y="36.05" width="84.98" height="147.52" style="fill: rgb(255, 255, 255); transform-origin: 425.61px 109.81px;" id="el68ayi43kev9" class="animable"></rect><rect x="399.3" y="55.22" width="52.25" height="109.18" style="fill: rgb(235, 235, 235); transform-origin: 425.425px 109.81px;" id="elzzzro2k752" class="animable"></rect><path d="M399.3,125.77c-.13-10.2,9.05-20.16,19.14-21.58,4.82-.68,9.94.27,14.44-1.57,8-3.29,10.59-14,18.67-17.13l.37,78.91H399.3Z" style="fill: rgb(224, 224, 224); transform-origin: 425.609px 124.945px;" id="el088z0suzuvrj" class="animable"></path><rect x="47.87" y="32.99" width="85.94" height="89.58" style="fill: rgb(224, 224, 224); transform-origin: 90.84px 77.78px;" id="elv2gg3v0w77b" class="animable"></rect><rect x="42.05" y="32.99" width="85.94" height="89.58" style="fill: rgb(250, 250, 250); transform-origin: 85.02px 77.78px;" id="elhd5zr4g1zqn" class="animable"></rect><path d="M128,122.6H42V33h86Zm-85.93,0H128V33H42.08Z" style="fill: rgb(224, 224, 224); transform-origin: 85px 77.8px;" id="elogmxgkb1xo" class="animable"></path><rect x="53.6" y="45.03" width="62.83" height="65.5" style="fill: rgb(255, 255, 255); transform-origin: 85.015px 77.78px;" id="el96jd2pecor4" class="animable"></rect><path d="M53.6,111a10.92,10.92,0,0,1-1.55,1.8c-1,1.06-2.41,2.49-4,4s-3,2.94-4.11,3.93a10.67,10.67,0,0,1-1.81,1.51,9.09,9.09,0,0,1,1.54-1.8c1-1.06,2.41-2.49,4-4s3-3,4.11-3.94A9.71,9.71,0,0,1,53.6,111Z" style="fill: rgb(224, 224, 224); transform-origin: 47.865px 116.62px;" id="elzxxdzh72iza" class="animable"></path><path d="M116.43,110.8a10,10,0,0,1,1.8,1.55c1.06,1,2.5,2.42,4,4s3,3,3.93,4.1a10.29,10.29,0,0,1,1.52,1.82,10.06,10.06,0,0,1-1.8-1.54c-1.06-1-2.5-2.42-4.06-4s-3-3-3.93-4.11A9.56,9.56,0,0,1,116.43,110.8Z" style="fill: rgb(224, 224, 224); transform-origin: 122.055px 116.535px;" id="eljt6sbs0apdo" class="animable"></path><path d="M116.26,45.21a10,10,0,0,1,1.55-1.8c1-1.06,2.41-2.5,4-4s3-3,4.11-3.93a9.89,9.89,0,0,1,1.82-1.52,9.91,9.91,0,0,1-1.55,1.8c-1,1.06-2.41,2.49-4,4.06s-3,2.95-4.11,3.93A9.56,9.56,0,0,1,116.26,45.21Z" style="fill: rgb(224, 224, 224); transform-origin: 122px 39.585px;" id="elcqzgy0502qj" class="animable"></path><path d="M53.43,45.37a10,10,0,0,1-1.8-1.55c-1.06-1-2.5-2.42-4.05-4s-2.95-3-3.93-4.1a9.06,9.06,0,0,1-1.51-1.82,10.53,10.53,0,0,1,1.79,1.55c1.06,1,2.5,2.41,4.06,4s2.95,3,3.93,4.11A9.56,9.56,0,0,1,53.43,45.37Z" style="fill: rgb(224, 224, 224); transform-origin: 47.785px 39.635px;" id="elz45phs5sy2j" class="animable"></path><path d="M116.26,110.53s0-.11,0-.32,0-.52,0-.91q0-1.23,0-3.54c0-3.1,0-7.62-.06-13.35,0-11.47-.07-27.81-.12-47.38l.24.25-62.65,0h0l.28-.28c0,24,0,46.53,0,65.5l-.24-.24,45.37.12,12.74.06,3.38,0,.87,0h0l-.84,0-3.33,0-12.69.07-45.52.12h-.24v-.24c0-19,0-41.46,0-65.5v-.28h.29l62.65,0h.24V45c0,19.63-.09,36-.12,47.54,0,5.71,0,10.2-.06,13.29,0,1.52,0,2.68,0,3.49,0,.38,0,.67,0,.89S116.26,110.53,116.26,110.53Z" style="fill: rgb(224, 224, 224); transform-origin: 85.04px 77.62px;" id="el2je4xgst66" class="animable"></path><rect x="74.53" y="67.3" width="20.97" height="20.97" style="fill: rgb(235, 235, 235); transform-origin: 85.015px 77.785px;" id="ele3nhrggxv8v" class="animable"></rect><rect x="185.84" y="337.17" width="171.82" height="79.24" style="fill: rgb(245, 245, 245); transform-origin: 271.75px 376.79px;" id="elq20qaj8c8wq" class="animable"></rect><path d="M353.58,412.68H189.78V341.34h163.8Zm-162.73-1.07H352.51v-69.2H190.85Z" style="fill: rgb(224, 224, 224); transform-origin: 271.68px 377.01px;" id="el52r3buo0x1q" class="animable"></path><rect x="357.67" y="337.17" width="41.98" height="79.24" style="fill: rgb(224, 224, 224); transform-origin: 378.66px 376.79px;" id="elahmir5z7u5h" class="animable"></rect><path d="M190.31,363.42H353a.22.22,0,0,0,0-.44H190.31a.22.22,0,0,0,0,.44Z" style="fill: rgb(224, 224, 224); transform-origin: 271.655px 363.2px;" id="el0csjdtjd5bo8" class="animable"></path><path d="M272.21,363.2a179.82,179.82,0,0,0,.06-21.53.22.22,0,0,0-.44,0,177.76,177.76,0,0,0,.05,21.53.17.17,0,0,0,.33,0Z" style="fill: rgb(224, 224, 224); transform-origin: 272.046px 352.39px;" id="el78nyx349qxb" class="animable"></path><path d="M316,352.44a2.22,2.22,0,1,1-2.22-2.22A2.21,2.21,0,0,1,316,352.44Z" style="fill: rgb(224, 224, 224); transform-origin: 313.78px 352.44px;" id="elnb77ljynun8" class="animable"></path><path d="M230.61,352.44a2.22,2.22,0,1,1-2.22-2.22A2.21,2.21,0,0,1,230.61,352.44Z" style="fill: rgb(224, 224, 224); transform-origin: 228.39px 352.44px;" id="el1pnuurxquof" class="animable"></path><path d="M273.9,377a2.22,2.22,0,1,1-2.22-2.22A2.22,2.22,0,0,1,273.9,377Z" style="fill: rgb(224, 224, 224); transform-origin: 271.68px 377px;" id="elzqc2jhveth" class="animable"></path><polygon points="206.39 416.41 197.54 466.16 202.52 466.16 218.83 416.41 206.39 416.41" style="fill: rgb(224, 224, 224); transform-origin: 208.185px 441.285px;" id="el2ntgmweggui" class="animable"></polygon><polygon points="345.51 416.41 352.91 466.25 347.93 466.25 333.07 416.41 345.51 416.41" style="fill: rgb(224, 224, 224); transform-origin: 342.99px 441.33px;" id="eld8hc0y34my" class="animable"></polygon><polygon points="378.73 416.41 387.11 466.25 382.13 466.25 366.29 416.41 378.73 416.41" style="fill: rgb(224, 224, 224); transform-origin: 376.7px 441.33px;" id="elcwhs6k2b6ef" class="animable"></polygon><path d="M273.75,399.43a2.22,2.22,0,1,1-2.22-2.21A2.22,2.22,0,0,1,273.75,399.43Z" style="fill: rgb(224, 224, 224); transform-origin: 271.53px 399.44px;" id="el2rck1dotlm6" class="animable"></path><path d="M190.31,388H353a.22.22,0,0,0,0-.43H190.31a.22.22,0,0,0,0,.43Z" style="fill: rgb(224, 224, 224); transform-origin: 271.655px 387.785px;" id="el3sy2n66mlk2" class="animable"></path><g id="eluf4r5cqei4"><rect x="274.52" y="279.15" width="10.58" height="51.95" style="fill: rgb(224, 224, 224); transform-origin: 279.81px 305.125px; transform: rotate(89.7deg);" class="animable"></rect></g><g id="elupfigj8vukl"><rect x="274.84" y="299.93" width="16.43" height="57.9" style="fill: rgb(245, 245, 245); transform-origin: 283.055px 328.88px; transform: rotate(89.7deg);" class="animable"></rect></g><path d="M300.9,336.83a59.45,59.45,0,0,1-.28-8.21,59.54,59.54,0,0,1,.28-8.22,61.49,61.49,0,0,1,.28,8.22A61.4,61.4,0,0,1,300.9,336.83Z" style="fill: rgb(224, 224, 224); transform-origin: 300.898px 328.615px;" id="elo266n1f6bvq" class="animable"></path><path d="M303.33,336.83a59.45,59.45,0,0,1-.28-8.21,59.54,59.54,0,0,1,.28-8.22,61.49,61.49,0,0,1,.28,8.22A61.4,61.4,0,0,1,303.33,336.83Z" style="fill: rgb(224, 224, 224); transform-origin: 303.328px 328.615px;" id="elkmeysdi90jq" class="animable"></path><path d="M262.86,336.83a61.4,61.4,0,0,1-.28-8.21,61.49,61.49,0,0,1,.28-8.22,59.54,59.54,0,0,1,.28,8.22A59.45,59.45,0,0,1,262.86,336.83Z" style="fill: rgb(224, 224, 224); transform-origin: 262.862px 328.615px;" id="elbzip8yrx6jh" class="animable"></path><path d="M265.29,336.83a61.4,61.4,0,0,1-.28-8.21,61.49,61.49,0,0,1,.28-8.22,59.54,59.54,0,0,1,.28,8.22A59.45,59.45,0,0,1,265.29,336.83Z" style="fill: rgb(224, 224, 224); transform-origin: 265.292px 328.615px;" id="eln3mxi6z647r" class="animable"></path><path d="M270.6,328.88c0-.16,5.84-.28,13-.28s13,.12,13,.28-5.84.29-13,.29S270.6,329,270.6,328.88Z" style="fill: rgb(224, 224, 224); transform-origin: 283.6px 328.885px;" id="el3v5nm1iesl3" class="animable"></path><g id="elm959z7qr727"><rect x="292.75" y="279.6" width="10.58" height="71.45" style="fill: rgb(235, 235, 235); transform-origin: 298.04px 315.325px; transform: rotate(89.4271deg);" class="animable"></rect></g><path d="M323.57,319.11a3.42,3.42,0,1,1,3.37-3.42A3.4,3.4,0,0,1,323.57,319.11Z" style="fill: rgb(224, 224, 224); transform-origin: 323.52px 315.69px;" id="el3h7aj9nktb7" class="animable"></path><g id="el2cpbbw8wsu9"><rect x="289.31" y="291.77" width="2.11" height="47.83" style="fill: rgb(224, 224, 224); transform-origin: 290.365px 315.685px; transform: rotate(90deg);" class="animable"></rect></g><path d="M47.13,369.83a34.32,34.32,0,0,0-14.74-5.07c-2.41-.25-5-.18-7,1.28a1.44,1.44,0,0,0-.72,1.27,1.54,1.54,0,0,0,.69.87c6,4.58,15.06,5.16,21.74,1.65" style="fill: rgb(224, 224, 224); transform-origin: 35.8999px 368.372px;" id="el7e4puwtarge" class="animable"></path><path d="M46.75,369.41A72.21,72.21,0,0,1,37.23,361a24.08,24.08,0,0,1-6-11,4.42,4.42,0,0,1,.47-3.69c7.58,5.92,13.54,13.59,15,23.1" style="fill: rgb(224, 224, 224); transform-origin: 38.8862px 357.86px;" id="el4ih9ay11it" class="animable"></path><path d="M47.05,369.77a34.26,34.26,0,0,1,.18-12.49A16.92,16.92,0,0,1,53.88,347c1.32,3.07.75,6.6-.17,9.8a47.75,47.75,0,0,1-6.6,13.9" style="fill: rgb(224, 224, 224); transform-origin: 50.6098px 358.85px;" id="elsufeo3vue5" class="animable"></path><path d="M54.49,383.1c-4.52.55-8.45,2.93-11.82,6a22.38,22.38,0,0,0-6.76,11.61c4.43-.28,8.19-3.4,10.91-6.9s4.61-7.34,7.61-10.62" style="fill: rgb(224, 224, 224); transform-origin: 45.2px 391.905px;" id="eliek3yuqwsl" class="animable"></path><path d="M56.1,385.23a29.18,29.18,0,0,1,3.37-27.57c2.57,9.15,1.63,19.49-3.37,27.57" style="fill: rgb(224, 224, 224); transform-origin: 57.4671px 371.445px;" id="elfdm49e6vsh6" class="animable"></path><path d="M65.93,396.94a21.07,21.07,0,0,0-20.15,11.6c-.25.5-.47,1.13-.14,1.58a1.5,1.5,0,0,0,1.34.39c4-.26,7.49-2.65,10.4-5.37s5.43-5.86,8.64-8.22" style="fill: rgb(224, 224, 224); transform-origin: 55.7466px 403.72px;" id="elqba6xq2czl" class="animable"></path><path d="M65.62,396.3a37.58,37.58,0,0,1-.38-21c.74-2.7,2-5.54,4.48-6.81a.92.92,0,0,1,.68-.12.9.9,0,0,1,.44.5,12.78,12.78,0,0,1,1,6A38.16,38.16,0,0,1,71,381c-.79,3.72-1.21,7.72-3.25,10.93a22.16,22.16,0,0,0-1.29,2.4c-.39.82-.39,1.11-.75,1.75" style="fill: rgb(224, 224, 224); transform-origin: 67.9015px 382.325px;" id="el9fw7clx95ud" class="animable"></path><path d="M91.63,400.17c-1.92-7.33.12-16.22,4.74-22.23.34-.44.79-.91,1.35-.86.85.08,1.07,1.21,1,2.07a40.06,40.06,0,0,1-7.12,21" style="fill: rgb(224, 224, 224); transform-origin: 94.8215px 388.623px;" id="el01e2tsfmz21c" class="animable"></path><path d="M94,401.78a32.36,32.36,0,0,0,26.53-5.4,21.48,21.48,0,0,0-14.36-1.76c-4.8,1.1-9.18,3.24-12.17,7.16" style="fill: rgb(224, 224, 224); transform-origin: 107.265px 398.367px;" id="elsygvx1r135" class="animable"></path><path d="M96,396.9c5-8.14,14.55-13.45,24.08-13.93-1.1,3.88-4.28,6.89-7.88,8.71s-7.6,2.61-11.56,3.38c-1.54.3-3.65.63-4.64,1.84" style="fill: rgb(224, 224, 224); transform-origin: 108.04px 389.935px;" id="elcr4lfrmhza" class="animable"></path><path d="M92.13,373.21a70.06,70.06,0,0,0,3.08-14.1c.37-4.81-.32-9.83-2.81-13.95-4.66,9-5.13,19.55-.41,28.53" style="fill: rgb(224, 224, 224); transform-origin: 91.9865px 359.425px;" id="el3xgah3oy3ey" class="animable"></path><path d="M107.82,365.28c5.45-9.9,16.56-17.81,27.81-18.92-4.34,10.8-16.17,19.15-27.81,18.92" style="fill: rgb(224, 224, 224); transform-origin: 121.725px 355.822px;" id="elobtym31pzij" class="animable"></path><path d="M104.39,367.22c8.13,1.24,15,6.43,22.64,9.58a10.29,10.29,0,0,0,5.12,1,4,4,0,0,0,2.51-7.09,10.81,10.81,0,0,0-3.72-2.26c-8.27-3.44-17.14-3.53-25.85-1.44" style="fill: rgb(224, 224, 224); transform-origin: 120.255px 371.718px;" id="el84x2h94ahr" class="animable"></path><path d="M99.69,372.92c1.84.53,2.46,1.48,3.92,2.72a42.26,42.26,0,0,0,17.17,8.82c.66.16,1.52.23,1.85-.36s-.08-1.15-.45-1.61a23.67,23.67,0,0,0-10.37-7c-4-1.47-7.39-3.25-12.12-2.87" style="fill: rgb(224, 224, 224); transform-origin: 111.221px 378.57px;" id="elk0olgp62jfk" class="animable"></path><path d="M94.38,338.49A32.49,32.49,0,0,0,119.29,347a1.7,1.7,0,0,0,1.14-.41c.63-.68-.13-1.73-.86-2.3-7.32-5.71-16.2-8.08-25.19-5.77" style="fill: rgb(224, 224, 224); transform-origin: 107.522px 342.384px;" id="elor0a0m9i3l" class="animable"></path><path d="M100.67,336.19a34.75,34.75,0,0,1,31.09-5.13A24.68,24.68,0,0,1,117,337.57a46.82,46.82,0,0,1-16.28-1.38" style="fill: rgb(224, 224, 224); transform-origin: 116.215px 333.599px;" id="elpwcfxvoyhcn" class="animable"></path><path d="M98.17,320.37c-.72-7.31-.25-13.08-.76-20.43,0-.58-.17-1.29-.72-1.5-.76-.3-1.4.64-1.65,1.42a23.46,23.46,0,0,0,3.12,20.35" style="fill: rgb(224, 224, 224); transform-origin: 96.0737px 309.376px;" id="elso7xdmlrdv" class="animable"></path><path d="M97.64,321.18a43,43,0,0,0,12.12-11.77c2.39-3.27,4.41-7.2,3.86-11.21a11.58,11.58,0,0,0-8.74,4.34,24.4,24.4,0,0,0-4.45,9c-1,3.21-1.65,6.52-2.79,9.68" style="fill: rgb(224, 224, 224); transform-origin: 105.676px 309.71px;" id="el1teqwrz865yj" class="animable"></path><path d="M109.54,317.87a97.54,97.54,0,0,0,29.81-17.57c-3.56-1.43-7.64-.58-11.2.86a35.27,35.27,0,0,0-18.76,16.64" style="fill: rgb(224, 224, 224); transform-origin: 124.37px 308.717px;" id="eljlttsexfjie" class="animable"></path><path d="M101,325.18c5.5.6,11.09,1,16.55.08s10.44-3,15.45-5.13a1.83,1.83,0,0,0,1-.8,1.2,1.2,0,0,0-.37-1.32,3.21,3.21,0,0,0-1.32-.62c-5.45-1.52-11.34-.81-16.7,1A78,78,0,0,0,101,325.18" style="fill: rgb(224, 224, 224); transform-origin: 117.533px 321.182px;" id="el4h7xkuwz8mf" class="animable"></path><path d="M69.57,338.74c-3.75-7.57-3.51-16.42-.27-24.23,2.29,3.48,2.57,7.91,2.15,12.05s-1.68,8.4-1.76,12.56" style="fill: rgb(224, 224, 224); transform-origin: 69.2136px 326.815px;" id="eljp32ic320de" class="animable"></path><path d="M54.58,331.18a33.82,33.82,0,0,0-25.12,10.7,23.48,23.48,0,0,0,13.75-2.55A69.69,69.69,0,0,0,55,331.44" style="fill: rgb(224, 224, 224); transform-origin: 42.23px 336.612px;" id="elu7dx48rt0ik" class="animable"></path><path d="M44.49,327.81c-4.58-.37-9-.94-13.4.41a16.1,16.1,0,0,0-10.22,8.66,24.17,24.17,0,0,0,12.57-2.37,72.44,72.44,0,0,0,11.05-6.7" style="fill: rgb(224, 224, 224); transform-origin: 32.68px 332.164px;" id="elue4f0g1efz" class="animable"></path><path d="M59.42,328c-4.12-2.7-8.36-5.45-13.16-6.57s-10.37-.29-13.72,3.33c3.89,2.28,8.61,2.55,13.11,2.54s10-.05,14.29,1.45" style="fill: rgb(224, 224, 224); transform-origin: 46.24px 324.858px;" id="elja6neynerq" class="animable"></path><path d="M59.45,328.18c-7.06-6.92-9.73-19.36-6.89-28.83a44,44,0,0,1,6.89,28.83" style="fill: rgb(224, 224, 224); transform-origin: 55.5766px 313.765px;" id="elvqqpil7mx2" class="animable"></path><path d="M78.84,308.56c1.33-3.09,2.26-6.34,3.45-9.48a27.32,27.32,0,0,1,4.94-8.75A13,13,0,0,1,96,285.81,35.17,35.17,0,0,1,79,308.61" style="fill: rgb(224, 224, 224); transform-origin: 87.42px 297.21px;" id="el2qesqw41j1a" class="animable"></path><path d="M75.33,312.65c-2.2-3-4.75-7.14-7.73-9.4s-6.87-3.63-10.51-2.76a24.46,24.46,0,0,0,18.24,12.16" style="fill: rgb(224, 224, 224); transform-origin: 66.21px 306.438px;" id="elzc3xhhac4i" class="animable"></path><path d="M76,308.81a52.21,52.21,0,0,1-3.48-11.26,17.62,17.62,0,0,1,1.76-11.46c3.87,7.32,5.12,15.17,1.92,22.81" style="fill: rgb(224, 224, 224); transform-origin: 75.1241px 297.495px;" id="elxr4esq7sqb" class="animable"></path><path d="M78.87,286.09c2.19-7.25,8.84-12.59,16-15a5.88,5.88,0,0,1,2.8-.42,2.42,2.42,0,0,1,2.07,1.72c.26,1.24-.76,2.34-1.71,3.16a54.41,54.41,0,0,1-19.17,10.58" style="fill: rgb(224, 224, 224); transform-origin: 89.3206px 278.387px;" id="el26erm8kkiuf" class="animable"></path><path d="M79,280.16c.28-4.68.57-9.42,2.09-13.85s4.46-8.59,8.72-10.53c.73,4.72-1.36,9.42-3.87,13.49s-5.54,7.9-7,12.43" style="fill: rgb(224, 224, 224); transform-origin: 84.4487px 268.74px;" id="ely6icoib4sc" class="animable"></path><path d="M78.84,283.38c-1.82-5.29-2-12-5.17-16.61-2.21-3.22-5.76-5.41-7.66-8.82a13.44,13.44,0,0,0,.44,10,29.13,29.13,0,0,0,5.86,8.38c2.34,2.5,4.35,4.38,6.53,7" style="fill: rgb(224, 224, 224); transform-origin: 72.0457px 270.665px;" id="elh9fgv75cd0a" class="animable"></path><path d="M78.87,439.06c-.14,0-.26-35.27-.27-78.76s.1-78.76.24-78.76.26,35.26.27,78.76S79,439.06,78.87,439.06Z" style="fill: rgb(224, 224, 224); transform-origin: 78.855px 360.3px;" id="el1v7hccr4bhg" class="animable"></path><path d="M109.69,333.42a6.86,6.86,0,0,1-1.33.5l-3.65,1.23c-3.07,1.05-7.3,2.57-11.89,4.45s-8.82,3.53-11.26,5.64a8.19,8.19,0,0,0-2.26,3c-.35.82-.42,1.33-.46,1.32s0-.13,0-.37a5.46,5.46,0,0,1,.26-1A8.1,8.1,0,0,1,81.32,345a19.61,19.61,0,0,1,4.89-3c2-.92,4.12-1.87,6.42-2.81,4.6-1.89,8.86-3.36,12-4.32,1.56-.49,2.83-.84,3.71-1.08A8.16,8.16,0,0,1,109.69,333.42Z" style="fill: rgb(224, 224, 224); transform-origin: 94.2561px 341.49px;" id="el2k3s4159vvn" class="animable"></path><path d="M119.79,308.61a2.72,2.72,0,0,1-.37.4l-1.13,1.06-4.23,3.84L100,326.43c-5.49,4.88-10.23,9.55-13.52,13.07-1.64,1.75-2.94,3.21-3.82,4.22l-1,1.17c-.23.26-.36.4-.38.39a2,2,0,0,1,.31-.46c.21-.28.52-.7.94-1.23.84-1,2.1-2.55,3.72-4.34a178.61,178.61,0,0,1,13.44-13.2c5.51-4.88,10.52-9.26,14.16-12.41l4.34-3.72,1.19-1A2.77,2.77,0,0,1,119.79,308.61Z" style="fill: rgb(224, 224, 224); transform-origin: 100.535px 326.945px;" id="ell7utuw0jk1n" class="animable"></path><path d="M94.08,331.4c-.15-.07,1-2.72,2.14-6.06s1.7-6.18,1.84-6.15a20.5,20.5,0,0,1-1.35,6.31A42.75,42.75,0,0,1,95,329.74,7.16,7.16,0,0,1,94.08,331.4Z" style="fill: rgb(224, 224, 224); transform-origin: 96.0634px 325.295px;" id="el5bih2dl4rgv" class="animable"></path><path d="M78.9,352.74a7.55,7.55,0,0,1-.84-1L75.89,349c-1.82-2.35-4.33-5.6-7.15-9.15s-5.42-6.75-7.3-9.05c-.88-1.1-1.62-2-2.21-2.74a7,7,0,0,1-.77-1.05,6.22,6.22,0,0,1,.92.92c.56.61,1.36,1.51,2.34,2.64,2,2.25,4.59,5.4,7.41,9s5.3,6.84,7.05,9.25c.87,1.21,1.57,2.19,2,2.88A5.88,5.88,0,0,1,78.9,352.74Z" style="fill: rgb(224, 224, 224); transform-origin: 68.68px 339.875px;" id="elcq3h70t2q6b" class="animable"></path><path d="M72.15,344.07a12.28,12.28,0,0,1-2.83-5.3,15.28,15.28,0,0,1-.65-5.35l.23,0c-.1.41-.18.63-.22.62s0-.24,0-.65h.22a24.58,24.58,0,0,0,.9,5.2A39.63,39.63,0,0,0,72.15,344.07Z" style="fill: rgb(224, 224, 224); transform-origin: 70.3979px 338.73px;" id="el9a8meylanrg" class="animable"></path><path d="M63.42,333.09a8.84,8.84,0,0,0-2-1.15,13.2,13.2,0,0,0-5.49-.43,34.38,34.38,0,0,0-5.53.89,16.4,16.4,0,0,1-2.27.55,7.87,7.87,0,0,1,2.18-.9A25.36,25.36,0,0,1,55.92,331a12,12,0,0,1,5.66.61A3.43,3.43,0,0,1,63.42,333.09Z" style="fill: rgb(224, 224, 224); transform-origin: 55.775px 331.993px;" id="elcucfh4htp2p" class="animable"></path><path d="M61.36,330.43c0,.08-1.16-.46-3-1.1a31.28,31.28,0,0,0-7.56-1.55,30.64,30.64,0,0,0-7.7.39c-2,.35-3.14.71-3.16.63s.27-.16.8-.34a19.72,19.72,0,0,1,2.29-.65A27.05,27.05,0,0,1,58.45,329a20.28,20.28,0,0,1,2.16,1A3.23,3.23,0,0,1,61.36,330.43Z" style="fill: rgb(224, 224, 224); transform-origin: 50.6495px 328.819px;" id="elhr9awhwiaap" class="animable"></path><path d="M78.84,319.19a61.41,61.41,0,0,1-2.21-7.67,63.85,63.85,0,0,1-1.72-7.8,60.77,60.77,0,0,1,2.21,7.67A63,63,0,0,1,78.84,319.19Z" style="fill: rgb(224, 224, 224); transform-origin: 76.875px 311.455px;" id="elda3k5anp4i" class="animable"></path><path d="M79,319.19a37,37,0,0,0-2.45-4.6,20.67,20.67,0,0,0-3.6-3.71,3.27,3.27,0,0,1,1.39.71A11.57,11.57,0,0,1,77,314.3,10.25,10.25,0,0,1,79,319.19Z" style="fill: rgb(224, 224, 224); transform-origin: 75.975px 315.035px;" id="elk9bcsr6m1h" class="animable"></path><path d="M78.87,420.26c-.05,0-.16-.85-.55-2.34A34.14,34.14,0,0,0,76,411.81c-2.44-5-6.87-11.29-12.5-17.62-2.8-3.18-5.5-6.19-7.8-9.07a62.75,62.75,0,0,1-5.58-8.05,37.27,37.27,0,0,1-2.81-6c-.26-.73-.45-1.31-.56-1.7a2.63,2.63,0,0,1-.14-.61s.3.81.88,2.24a43.93,43.93,0,0,0,2.94,5.86A68,68,0,0,0,56,384.82c2.31,2.85,5,5.84,7.82,9,5.65,6.34,10.07,12.73,12.44,17.79a30.32,30.32,0,0,1,2.23,6.22c.16.76.27,1.36.31,1.77A2.62,2.62,0,0,1,78.87,420.26Z" style="fill: rgb(224, 224, 224); transform-origin: 62.7403px 394.51px;" id="elnoct6xjqz3q" class="animable"></path><path d="M106.72,388.81a16.74,16.74,0,0,1-1.46.82,31,31,0,0,0-3.79,2.5,43.22,43.22,0,0,0-5,4.53c-1.74,1.85-3.54,4-5.37,6.28-3.67,4.6-7.1,8.67-9.16,11.93-1,1.61-1.8,3-2.29,3.92a12.8,12.8,0,0,1-.81,1.47,1.48,1.48,0,0,1,.14-.41c.11-.27.25-.66.49-1.15a37.19,37.19,0,0,1,2.17-4c2-3.33,5.4-7.45,9.06-12.05,1.84-2.3,3.66-4.44,5.43-6.28a40.53,40.53,0,0,1,5.1-4.5,27.48,27.48,0,0,1,3.91-2.39c.48-.24.88-.39,1.14-.5S106.71,388.79,106.72,388.81Z" style="fill: rgb(224, 224, 224); transform-origin: 92.78px 404.533px;" id="el23h6rqabtfu" class="animable"></path><path d="M107.26,399a21.3,21.3,0,0,1-3.08.45,40,40,0,0,0-7.32,1.44,22.05,22.05,0,0,0-6.55,3.44c-1.51,1.16-2.22,2.13-2.29,2.07a2.49,2.49,0,0,1,.46-.71,11.35,11.35,0,0,1,1.61-1.64,19.83,19.83,0,0,1,6.62-3.65,33.78,33.78,0,0,1,7.43-1.31A16.54,16.54,0,0,1,107.26,399Z" style="fill: rgb(224, 224, 224); transform-origin: 97.64px 402.684px;" id="eldhd62fw5z38" class="animable"></path><path d="M88.92,405.29c-.16-.09,1.23-2.21,2.31-5.07s1.25-5.41,1.43-5.38a4.9,4.9,0,0,1,0,1.66,18,18,0,0,1-.9,3.89A19.1,19.1,0,0,1,89.92,404C89.37,404.83,89,405.33,88.92,405.29Z" style="fill: rgb(224, 224, 224); transform-origin: 90.8191px 400.066px;" id="elmc2aoo5lalh" class="animable"></path><path d="M115.74,361.41a2,2,0,0,1-.49.26l-1.45.66c-.64.27-1.41.62-2.28,1.08s-1.89.91-3,1.55l-1.68,1c-.58.34-1.16.74-1.77,1.12-1.24.75-2.49,1.68-3.81,2.63a65,65,0,0,0-14.68,15.18c-.9,1.36-1.78,2.63-2.49,3.9-.37.63-.74,1.22-1.06,1.81l-.9,1.72c-.6,1.08-1,2.11-1.45,3s-.74,1.66-1,2.31-.45,1.08-.61,1.47a2.59,2.59,0,0,1-.25.5A3.27,3.27,0,0,1,79,399l.52-1.51c.23-.65.52-1.45.92-2.35s.81-1.95,1.39-3l.87-1.75c.31-.6.69-1.2,1-1.83.7-1.29,1.58-2.58,2.48-3.95A62.94,62.94,0,0,1,101,369.28c1.34-.94,2.6-1.86,3.86-2.6.62-.38,1.21-.78,1.8-1.11l1.71-.93c1.08-.62,2.11-1.06,3-1.49s1.67-.75,2.32-1l1.49-.57A1.89,1.89,0,0,1,115.74,361.41Z" style="fill: rgb(224, 224, 224); transform-origin: 97.28px 380.505px;" id="elfc3uyqw1o2p" class="animable"></path><path d="M93.7,376.18a3.49,3.49,0,0,1,1.21-1.81,7.64,7.64,0,0,1,4.88-1.87,13.37,13.37,0,0,1,5.14,1,7.34,7.34,0,0,1,1.95.95,12,12,0,0,1-2.07-.61,15.71,15.71,0,0,0-5-.83,7.9,7.9,0,0,0-4.66,1.64A14.18,14.18,0,0,0,93.7,376.18Z" style="fill: rgb(224, 224, 224); transform-origin: 100.29px 374.34px;" id="elu3vbybstepq" class="animable"></path><path d="M90.4,379.58a18.16,18.16,0,0,0,1.39-4.51,17.9,17.9,0,0,0-.31-4.71c.06,0,.33.45.57,1.31a9.37,9.37,0,0,1,.25,3.45,9.09,9.09,0,0,1-1,3.31C90.83,379.21,90.45,379.61,90.4,379.58Z" style="fill: rgb(224, 224, 224); transform-origin: 91.38px 374.971px;" id="elwbb2ihrqql9" class="animable"></path><path d="M54.52,425.31c.76,13.48,4.82,27.19,11.06,41H92.75c6-13.72,9.74-27.4,10.41-41Z" style="fill: rgb(224, 224, 224); transform-origin: 78.84px 445.81px;" id="eliy0fghggf7g" class="animable"></path><path d="M98.75,447.12c0,.14-8.94.26-20,.26s-20-.12-20-.26,9-.25,20-.25S98.75,447,98.75,447.12Z" style="fill: rgb(250, 250, 250); transform-origin: 78.75px 447.125px;" id="elz4s83an3v7" class="animable"></path><path d="M98.15,452c0,.14-8.39.26-18.73.26S60.7,452.14,60.7,452s8.38-.25,18.72-.25S98.15,451.86,98.15,452Z" style="fill: rgb(250, 250, 250); transform-origin: 79.425px 452.005px;" id="eljmr7ocuvxo" class="animable"></path><path d="M66,434.16a75.49,75.49,0,0,1,0,12.52,78.5,78.5,0,0,1,0-12.52Z" style="fill: rgb(250, 250, 250); transform-origin: 66.005px 440.42px;" id="eljr01w0zlt2k" class="animable"></path><path d="M80.58,434.16a84.11,84.11,0,0,1,0,13,80.88,80.88,0,0,1,0-13Z" style="fill: rgb(250, 250, 250); transform-origin: 80.575px 440.66px;" id="el1ij54cnomf2" class="animable"></path><path d="M94.24,434.05a87.51,87.51,0,0,1,0,13.22,84.15,84.15,0,0,1,0-13.22Z" style="fill: rgb(250, 250, 250); transform-origin: 94.235px 440.66px;" id="el2zz8y9dy4jl" class="animable"></path><path d="M102.29,434.16c0,.14-10.49.26-23.42.26s-23.43-.12-23.43-.26,10.49-.25,23.43-.25S102.29,434,102.29,434.16Z" style="fill: rgb(250, 250, 250); transform-origin: 78.865px 434.165px;" id="el6tq57zhrl8j" class="animable"></path></g><g id="freepik--Floor--inject-48" class="animable" style="transform-origin: 253px 466.35px;"><path d="M458.34,466.35c0,.15-91.94.26-205.33.26s-205.35-.11-205.35-.26,91.92-.26,205.35-.26S458.34,466.21,458.34,466.35Z" style="fill: rgb(38, 50, 56); transform-origin: 253px 466.35px;" id="eltxe88wtrvq" class="animable"></path></g><g id="freepik--Screen--inject-48" class="animable" style="transform-origin: 263.497px 158.752px;"><rect x="162.47" y="78.76" width="202" height="160.27" rx="7.87" style="fill: rgb(255, 255, 255); transform-origin: 263.47px 158.895px;" id="el513a9fryw7" class="animable"></rect><path d="M325.48,157.84a10.86,10.86,0,0,0-15.11-.31l-18.9,17.61S277,188,267.64,194.26a5.85,5.85,0,0,1-3.8,1.35,5.28,5.28,0,0,1-2.77-1.46l-24.91-20.89-9.08-7.56a19.42,19.42,0,0,0-24.33-.45c-18.63,14.4-40,31.64-40,31.64l-.24,35.53c0,3.64,3.88,6.61,8.7,6.61H355.29c5.07,0,9.18-3.11,9.18-6.94V197.15Z" style="fill: rgb(69, 90, 100); transform-origin: 263.49px 196.827px;" id="eln1dk6tu7izn" class="animable"></path><g id="elh0tpku209z"><circle cx="298.63" cy="128.29" r="13.43" style="fill: rgb(69, 90, 100); transform-origin: 298.63px 128.29px; transform: rotate(-45deg);" class="animable"></circle></g><path d="M356.6,239l.46,0a8.12,8.12,0,0,0,1.36-.21,7.86,7.86,0,0,0,4.39-2.89,7.57,7.57,0,0,0,1.5-3.59,14.07,14.07,0,0,0,.09-2.28c0-.8,0-1.63,0-2.49q0-5.21,0-12c0-18-.05-44-.08-76.19,0-16.08,0-33.7,0-52.61a7.63,7.63,0,0,0-6-7.61,16.34,16.34,0,0,0-3.59-.19h-46L170.36,79a7.64,7.64,0,0,0-7,4.6,7.88,7.88,0,0,0-.56,2.13,20.85,20.85,0,0,0-.06,2.25v57.91c0,23.15,0,45.48,0,66.74V228.4a37.43,37.43,0,0,0,.08,3.84,7.36,7.36,0,0,0,1.39,3.42,7.65,7.65,0,0,0,6.37,3.14l29.32,0,52.61,0,76.19.08,20.71,0,5.39,0c1.21,0,1.83,0,1.83,0l-1.83,0-5.39,0-20.71,0-76.19.09-52.61,0H170.55a8.12,8.12,0,0,1-6.75-3.33,7.84,7.84,0,0,1-1.47-3.63c-.16-1.33-.06-2.59-.09-3.9q0-7.77,0-15.75c0-21.26,0-43.59,0-66.74q0-17.35,0-35.3V88a22.49,22.49,0,0,1,.06-2.31,8.84,8.84,0,0,1,.6-2.27,8.17,8.17,0,0,1,7.49-4.92l138.36,0h46a17,17,0,0,1,3.69.2,8.07,8.07,0,0,1,6.32,8c0,18.91,0,36.53,0,52.61,0,32.16-.06,58.19-.08,76.19q0,6.75,0,12c0,.86,0,1.69,0,2.49a14.39,14.39,0,0,1-.1,2.3,7.89,7.89,0,0,1-6,6.51,6.82,6.82,0,0,1-1.36.18Z" style="fill: rgb(38, 50, 56); transform-origin: 263.497px 158.737px;" id="eluew08da372f" class="animable"></path><path d="M171.63,220.82v.57H169v-.45l1.44-1.36c.35-.34.41-.55.41-.75s-.23-.53-.67-.53a1,1,0,0,0-.85.38l-.47-.36a1.66,1.66,0,0,1,1.37-.6c.79,0,1.3.4,1.3,1a1.45,1.45,0,0,1-.6,1.14l-1,.92Z" style="fill: rgb(255, 255, 255); transform-origin: 170.245px 219.554px;" id="elotrlsqeqwj" class="animable"></path><path d="M172,219a.43.43,0,1,1,.43.43A.42.42,0,0,1,172,219Zm0,2a.43.43,0,1,1,.43.43A.42.42,0,0,1,172,221Z" style="fill: rgb(255, 255, 255); transform-origin: 172.43px 220px;" id="elglnd7h4129a" class="animable"></path><path d="M174.53,217.77v3.62h-.68v-3.06h-.76v-.56Z" style="fill: rgb(255, 255, 255); transform-origin: 173.81px 219.58px;" id="ellg6k6zmu8pl" class="animable"></path><path d="M178.47,220.57h-.64v.82h-.65v-.82h-2v-.47l1.79-2.33h.72L176,220h1.19v-.73h.63V220h.64Z" style="fill: rgb(255, 255, 255); transform-origin: 176.825px 219.58px;" id="elrscho3b48g" class="animable"></path><rect x="184.39" y="219.12" width="140.99" height="1.25" style="fill: rgb(255, 255, 255); transform-origin: 254.885px 219.745px;" id="el56jc5tp1vkd" class="animable"></rect><rect x="184.19" y="217.77" width="85.9" height="3.34" style="fill: rgb(0, 100, 255); transform-origin: 227.14px 219.44px;" id="elcibfl4ugun" class="animable"></rect><path d="M272.86,219.75a4.19,4.19,0,1,1-4.19-4.18A4.19,4.19,0,0,1,272.86,219.75Z" style="fill: rgb(0, 100, 255); transform-origin: 268.67px 219.76px;" id="elx17k7wzv0ur" class="animable"></path><path d="M334.7,220.47a1.2,1.2,0,0,1-1.32,1.17c-1,0-1.57-.63-1.57-1.8a1.71,1.71,0,0,1,1.77-1.92,1.76,1.76,0,0,1,.95.23l-.24.51a1.25,1.25,0,0,0-.69-.18c-.68,0-1.11.43-1.11,1.25h0a1.22,1.22,0,0,1,1-.37A1.13,1.13,0,0,1,334.7,220.47Zm-.65,0c0-.38-.29-.62-.73-.62a.66.66,0,0,0-.73.62c0,.35.27.61.75.61S334.05,220.88,334.05,220.5Z" style="fill: rgb(255, 255, 255); transform-origin: 333.248px 219.782px;" id="ell5hx4qcz0oh" class="animable"></path><path d="M335,219.23a.41.41,0,0,1,.42-.43.42.42,0,0,1,.43.43.43.43,0,0,1-.43.43A.42.42,0,0,1,335,219.23Zm0,2a.41.41,0,0,1,.42-.43.42.42,0,0,1,.43.43.43.43,0,0,1-.43.43A.42.42,0,0,1,335,221.2Z" style="fill: rgb(255, 255, 255); transform-origin: 335.424px 220.23px;" id="elf1qzb4g1bdd" class="animable"></path><path d="M336.31,219.78c0-1.19.65-1.86,1.51-1.86s1.52.67,1.52,1.86-.65,1.86-1.52,1.86S336.31,221,336.31,219.78Zm2.35,0c0-.87-.34-1.28-.84-1.28s-.83.41-.83,1.28.34,1.28.83,1.28S338.66,220.65,338.66,219.78Z" style="fill: rgb(255, 255, 255); transform-origin: 337.825px 219.78px;" id="elli86e0bafho" class="animable"></path><path d="M339.79,219.78c0-1.19.65-1.86,1.51-1.86s1.52.67,1.52,1.86-.66,1.86-1.52,1.86S339.79,221,339.79,219.78Zm2.35,0c0-.87-.34-1.28-.84-1.28s-.83.41-.83,1.28.34,1.28.83,1.28S342.14,220.65,342.14,219.78Z" style="fill: rgb(255, 255, 255); transform-origin: 341.305px 219.78px;" id="eltdbbj85nne" class="animable"></path><polygon points="348.67 219.56 347.42 219.56 347.42 215.94 351.02 215.94 351.02 217.19 348.67 217.19 348.67 219.56" style="fill: rgb(255, 255, 255); transform-origin: 349.22px 217.75px;" id="el4e6ohq28byu" class="animable"></polygon><polygon points="351.02 224.27 347.41 224.27 347.41 220.66 348.67 220.66 348.67 223.02 351.02 223.02 351.02 224.27" style="fill: rgb(255, 255, 255); transform-origin: 349.215px 222.465px;" id="ellch7dhtiui" class="animable"></polygon><polygon points="356.78 224.27 353.17 224.27 353.17 223.02 355.52 223.02 355.52 220.66 356.78 220.66 356.78 224.27" style="fill: rgb(255, 255, 255); transform-origin: 354.975px 222.465px;" id="el7dyx4fluvi" class="animable"></polygon><polygon points="356.78 219.55 355.53 219.55 355.53 217.19 353.17 217.19 353.17 215.94 356.78 215.94 356.78 219.55" style="fill: rgb(255, 255, 255); transform-origin: 354.975px 217.745px;" id="elini7sgkd7zb" class="animable"></polygon></g><g id="freepik--Button--inject-48" class="animable" style="transform-origin: 263.47px 151.88px;"><g id="elsasypkcl1y"><circle cx="263.47" cy="151.88" r="22.75" style="fill: rgb(0, 100, 255); transform-origin: 263.47px 151.88px; transform: rotate(-80.85deg);" class="animable"></circle></g><path d="M286.23,151.88a1.61,1.61,0,0,1-.05-.37c0-.27-.05-.62-.08-1.08l-.05-.79c0-.29-.1-.61-.15-.95a17.12,17.12,0,0,0-.48-2.34,22,22,0,0,0-2.54-6,22.56,22.56,0,0,0-27.08-9.6,23.78,23.78,0,0,0-2.93,1.3,23.05,23.05,0,0,0-2.76,1.77,25,25,0,0,0-2.55,2.17,26.48,26.48,0,0,0-2.21,2.61,21.86,21.86,0,0,0-3.21,6.2,24.1,24.1,0,0,0-1.16,7.1,23.78,23.78,0,0,0,1.16,7.1,21.61,21.61,0,0,0,3.21,6.2,20.77,20.77,0,0,0,4.76,4.78,23.05,23.05,0,0,0,2.76,1.77A22.3,22.3,0,0,0,255.8,173a22.47,22.47,0,0,0,21.33-3.2,22.35,22.35,0,0,0,5.75-6.4,21.84,21.84,0,0,0,2.54-6,17.12,17.12,0,0,0,.48-2.34c.05-.34.11-.66.15-.95s0-.55.05-.79c0-.46.06-.81.08-1.08a1.49,1.49,0,0,1,.05-.37,3.39,3.39,0,0,1,0,.37q0,.41,0,1.08c0,.24,0,.51,0,.8s-.08.61-.13,1a17.12,17.12,0,0,1-.44,2.37,21.3,21.3,0,0,1-2.48,6.11,22.89,22.89,0,0,1-15.42,10.87,23,23,0,0,1-12.07-1,23.37,23.37,0,0,1-3-1.32,22.88,22.88,0,0,1-2.83-1.8,25.77,25.77,0,0,1-2.61-2.22,25.17,25.17,0,0,1-2.26-2.66,22.22,22.22,0,0,1-3.29-6.34,22.74,22.74,0,0,1,0-14.52,22.09,22.09,0,0,1,3.29-6.34,25.17,25.17,0,0,1,2.26-2.66,25.77,25.77,0,0,1,2.61-2.22,22.88,22.88,0,0,1,2.83-1.8,23.37,23.37,0,0,1,3-1.32,23,23,0,0,1,12.07-1,22.89,22.89,0,0,1,15.42,10.87,21.18,21.18,0,0,1,2.48,6.11,16.85,16.85,0,0,1,.44,2.37c.05.34.1.66.13,1s0,.55,0,.8q0,.67,0,1.08A3.49,3.49,0,0,1,286.23,151.88Z" style="fill: rgb(38, 50, 56); transform-origin: 263.377px 151.87px;" id="el8we4ezfghvn" class="animable"></path><rect x="256.64" y="143.61" width="4.79" height="16.54" style="fill: rgb(255, 255, 255); transform-origin: 259.035px 151.88px;" id="elqbag53e975l" class="animable"></rect><rect x="265.51" y="143.61" width="4.79" height="16.54" style="fill: rgb(255, 255, 255); transform-origin: 267.905px 151.88px;" id="elto7z48wzoc" class="animable"></rect></g><g id="freepik--Plant--inject-48" class="animable" style="transform-origin: 402.15px 356.705px;"><path d="M446.1,252.4C435,258.17,426.42,268.1,420.28,279s-10.09,22.93-14,34.84l-3.43,61.43c13-22,23.35-47.95,26.16-73.36l-8.62-.77c5.78-.88,10.63-5.07,13.72-10s4.68-10.69,6.23-16.33l-10.52,1.56A39,39,0,0,0,446.1,252.4Z" style="fill: rgb(69, 90, 100); transform-origin: 424.475px 313.835px;" id="elqascie95cer" class="animable"></path><g id="el46f05rxquut"><g style="opacity: 0.3; transform-origin: 424.475px 313.835px;" class="animable"><path d="M446.1,252.4C435,258.17,426.42,268.1,420.28,279s-10.09,22.93-14,34.84l-3.43,61.43c13-22,23.35-47.95,26.16-73.36l-8.62-.77c5.78-.88,10.63-5.07,13.72-10s4.68-10.69,6.23-16.33l-10.52,1.56A39,39,0,0,0,446.1,252.4Z" id="elrnk6ikh36l" class="animable" style="transform-origin: 424.475px 313.835px;"></path></g></g><path d="M400.92,389.7s-28.12-33.65-27.8-65.79h11.36s-12.33-8.11-11.36-12.65,1.3-21.75,1.3-21.75l10.39,2.6s-7.79-3.9-8.76-10.06,2.27-34.73,2.27-34.73,12.66,13.31,16.55,26.94S409,303.79,406,345.34,400.92,389.7,400.92,389.7Z" style="fill: rgb(69, 90, 100); transform-origin: 389.804px 318.51px;" id="elaicurqrqt79" class="animable"></path><path d="M415.18,392.88s30.46-20.29,37.23-46.2l-9.13-2.48s11.7-3.83,11.9-7.69,3.72-17.77,3.72-17.77l-8.92-.19s7.11-1.42,9.24-6.17S465,284,465,284s-13.09,7.93-19.21,18S428,322.66,421.31,356.71,415.18,392.88,415.18,392.88Z" style="fill: rgb(69, 90, 100); transform-origin: 440.084px 338.44px;" id="elbr0iwll671n" class="animable"></path><path d="M386,276.66a2.24,2.24,0,0,1,.1.35c.07.27.15.61.25,1,.21.95.52,2.29.9,4s.84,3.86,1.34,6.34,1.08,5.29,1.66,8.41c1.2,6.24,2.47,13.7,3.78,22s2.54,17.46,3.67,27.09,1.95,18.84,2.61,27.22,1.09,15.93,1.33,22.29c.16,3.17.23,6,.31,8.57s.13,4.69.14,6.47,0,3.12,0,4.09c0,.45,0,.8,0,1.07a1.41,1.41,0,0,1,0,.36,2,2,0,0,1,0-.36c0-.27,0-.62-.05-1.07,0-1-.08-2.34-.14-4.08s-.13-3.95-.24-6.47-.21-5.39-.4-8.56c-.3-6.35-.8-13.9-1.45-22.27s-1.56-17.56-2.66-27.2-2.38-18.77-3.61-27.07-2.51-15.77-3.67-22c-.54-3.13-1.1-5.95-1.57-8.43s-.89-4.61-1.24-6.35-.61-3.06-.79-4c-.08-.43-.15-.78-.19-1A1.93,1.93,0,0,1,386,276.66Z" style="fill: rgb(38, 50, 56); transform-origin: 394.051px 346.29px;" id="el116y6u3tcxd" class="animable"></path><path d="M397,410.32s-25.73-29.2-33.72-46.85l6-2.58c-4.37.72-8.85-1.16-12.24-4s-5.88-6.61-8.33-10.31l7.95-1.34a29.54,29.54,0,0,1-17.36-13.45c9.38,1.54,17.86,6.69,24.85,13.13a123.58,123.58,0,0,1,15.06,17.45,60,60,0,0,1,5.85,9.61C389.43,380.91,397,399.59,397,410.32Z" style="fill: rgb(69, 90, 100); transform-origin: 368.15px 371.055px;" id="elt93tnq3t12b" class="animable"></path><path d="M452.82,301a1.18,1.18,0,0,1-.12.3l-.39.85-1.56,3.24c-1.38,2.81-3.33,6.88-5.69,11.94-4.74,10.12-11,24.25-17.12,40.14s-11,30.55-14.34,41.22c-1.66,5.34-3,9.67-3.83,12.67-.43,1.46-.78,2.62-1,3.45-.12.36-.21.66-.28.89a1.44,1.44,0,0,1-.12.3,1.21,1.21,0,0,1,.06-.31c.06-.24.13-.54.23-.91.22-.84.52-2,.92-3.48.8-3,2-7.37,3.64-12.73,3.21-10.7,8.05-25.39,14.2-41.31s12.45-30,17.28-40.1c2.42-5,4.42-9.1,5.86-11.87l1.66-3.19c.19-.34.33-.61.45-.83A1.34,1.34,0,0,1,452.82,301Z" style="fill: rgb(38, 50, 56); transform-origin: 430.595px 358.5px;" id="elw9uoyan3oqd" class="animable"></path><path d="M399.2,422.83a2.21,2.21,0,0,1-.13-.54l-.25-1.55c-.2-1.34-.54-3.29-1-5.67s-1.13-5.21-2-8.32-1.94-6.46-3.24-9.94-2.75-6.71-4.14-9.61-2.79-5.44-4-7.54-2.25-3.78-3-4.93l-.83-1.33c-.19-.31-.28-.47-.26-.49a2.3,2.3,0,0,1,.35.43l.93,1.27c.8,1.1,1.88,2.76,3.15,4.84s2.69,4.63,4.15,7.52,2.87,6.15,4.2,9.63,2.37,6.89,3.21,10,1.45,6,1.86,8.38.7,4.36.83,5.72c.06.63.11,1.14.15,1.57A1.77,1.77,0,0,1,399.2,422.83Z" style="fill: rgb(38, 50, 56); transform-origin: 389.78px 397.87px;" id="el79yz4wf5rp6" class="animable"></path><rect x="376.84" y="415.96" width="56.32" height="11.49" style="fill: rgb(0, 100, 255); transform-origin: 405px 421.705px;" id="el782zr05958m" class="animable"></rect><polygon points="382.2 427.45 388.3 466.09 422.33 466.09 428.01 427.45 382.2 427.45" style="fill: rgb(0, 100, 255); transform-origin: 405.105px 446.77px;" id="elovomzgdodal" class="animable"></polygon><path d="M429.71,427.45c0,.16-10.66.29-23.8.29s-23.8-.13-23.8-.29,10.66-.29,23.8-.29S429.71,427.29,429.71,427.45Z" style="fill: rgb(38, 50, 56); transform-origin: 405.91px 427.45px;" id="elw6aseexfav8" class="animable"></path></g><g id="freepik--Character--inject-48" class="animable" style="transform-origin: 157.845px 270.929px;"><path d="M138.49,442.25V466l49-.23c-.35-4.82-27.22-14.45-27.22-14.45l.53-9.11Z" style="fill: rgb(69, 90, 100); transform-origin: 162.99px 454.105px;" id="el9lkgc849waj" class="animable"></path><g id="ele09onn5ykar"><g style="opacity: 0.6; transform-origin: 146.909px 451.095px;" class="animable"><path d="M146.41,449.21a2.07,2.07,0,0,0-1.34,2.37,1.91,1.91,0,0,0,2.26,1.4,2.18,2.18,0,0,0,1.41-2.52,2,2,0,0,0-2.51-1.19" style="fill: rgb(255, 255, 255); transform-origin: 146.909px 451.095px;" id="el6gezjcktwff" class="animable"></path></g></g><path d="M138.49,466v-3.8l46.75.54s2.44,1.44,2.21,3Z" style="fill: rgb(38, 50, 56); transform-origin: 162.978px 464.1px;" id="elc8dh4ke5dqe" class="animable"></path><path d="M160.23,451.82c0,.25-1.2.38-2.35,1.19s-1.77,1.85-2,1.76.11-1.53,1.53-2.48S160.27,451.59,160.23,451.82Z" style="fill: rgb(38, 50, 56); transform-origin: 158.022px 453.192px;" id="elgimyt6c07w9" class="animable"></path><path d="M166.64,454c.06.24-1,.67-1.76,1.73s-1,2.16-1.24,2.16-.41-1.4.6-2.7S166.63,453.79,166.64,454Z" style="fill: rgb(38, 50, 56); transform-origin: 165.05px 455.902px;" id="ela3bpk7d6d6m" class="animable"></path><path d="M169.53,460.09c-.22.05-.57-1.18,0-2.54s1.7-1.91,1.8-1.71-.57.94-1,2.06S169.76,460.06,169.53,460.09Z" style="fill: rgb(38, 50, 56); transform-origin: 170.28px 457.946px;" id="ellkckcg2owe" class="animable"></path><path d="M159.75,445.05c-.1.23-1.19-.1-2.53,0s-2.39.57-2.52.36.87-1.11,2.46-1.22S159.86,444.86,159.75,445.05Z" style="fill: rgb(38, 50, 56); transform-origin: 157.223px 444.821px;" id="elvv6ibagw8" class="animable"></path><path d="M160,452.88a3.35,3.35,0,0,0,.11-1.45,7.91,7.91,0,0,0-1.3-3.75,7.58,7.58,0,0,0-1.91-2,1.7,1.7,0,0,0-1.66-.28,1.82,1.82,0,0,0-1,1.57,6.29,6.29,0,0,0,4.3,5.56,6.21,6.21,0,0,0,6.61-1.92,4.27,4.27,0,0,0,.88-1.47,1.61,1.61,0,0,0,0-1,1.14,1.14,0,0,0-.67-.69,2.09,2.09,0,0,0-1.52.15A9.84,9.84,0,0,0,160,451a3.84,3.84,0,0,0-.68,1.27,14.29,14.29,0,0,1,3.73-3.55c.66-.37,1.52-.89,2.21-.66.3.12.42.47.28.89a3.74,3.74,0,0,1-.77,1.21,5.63,5.63,0,0,1-5.92,1.69,5.74,5.74,0,0,1-3.88-4.84,1.18,1.18,0,0,1,.58-1,1.14,1.14,0,0,1,1.09.21,7,7,0,0,1,1.82,1.77,8.25,8.25,0,0,1,1.43,3.48C160,452.36,160,452.88,160,452.88Z" style="fill: rgb(38, 50, 56); transform-origin: 160.175px 449.088px;" id="eln441aoedwt" class="animable"></path><polygon points="115.75 443.46 115.75 451.14 115.19 464.95 96.84 465.39 96.18 451.14 96.72 442.46 115.75 443.46" style="fill: rgb(69, 90, 100); transform-origin: 105.965px 453.925px;" id="elyeyv6amjuag" class="animable"></polygon><path d="M106.12,463.91c-.12,0,.15-4.22.59-9.43s.88-9.45,1-9.46-.15,4.22-.59,9.44S106.23,463.91,106.12,463.91Z" style="fill: rgb(38, 50, 56); transform-origin: 106.915px 454.465px;" id="el4rwfre91w3a" class="animable"></path><polygon points="115.27 462.65 96.72 462.86 96.72 465.39 115.28 465.37 115.27 462.65" style="fill: rgb(38, 50, 56); transform-origin: 106px 464.02px;" id="el3fwa2adqhcz" class="animable"></polygon><path d="M96.77,454.71s.13-.28.47-.73a13,13,0,0,1,4.6-3.66,9.93,9.93,0,0,1,11.43,2.07,8.12,8.12,0,0,1,1.35,2,2.41,2.41,0,0,1,.29.81,19,19,0,0,0-1.92-2.5,9.89,9.89,0,0,0-6.88-2.77,11.3,11.3,0,0,0-7,2.67C97.59,453.79,96.84,454.78,96.77,454.71Z" style="fill: rgb(38, 50, 56); transform-origin: 105.84px 452.275px;" id="eljsvnz7kiljr" class="animable"></path><path d="M157.07,264l-2.15-3.35-68.58,3.23S85,285.14,86,293c.3,2.5,1.72,12.2,1.72,12.2l1.69,75.16c.64,6,2.26,68.69,2.26,68.69h27.18l5.55-100.56c.58-11.19.16-28.15.72-40.53l9.34,37.93,7,23.34s-1.5,11.58-3.15,25.36c-2.3,19.31-2.22,53.6-2.22,53.6l27.91.45s3.87-35.62,6.9-56.42l2.61-24.83c0-4.15-1.81-14.3-2.13-16Z" style="fill: rgb(38, 50, 56); transform-origin: 129.57px 354.85px;" id="el7vfomt450i6" class="animable"></path><path d="M131.19,310.17a7.26,7.26,0,0,1-1.25-.42,14.44,14.44,0,0,1-1.43-.61c-.54-.27-1.18-.54-1.84-.94s-1.39-.79-2.13-1.31-1.51-1.08-2.31-1.7a34,34,0,0,1-4.65-4.65A34.53,34.53,0,0,1,114,295c-.43-.92-.88-1.77-1.18-2.62a21.13,21.13,0,0,1-.84-2.35,20.19,20.19,0,0,1-.53-2,11.62,11.62,0,0,1-.29-1.52,6.42,6.42,0,0,1-.14-1.32c.11,0,.34,1.86,1.3,4.73a23.78,23.78,0,0,0,.89,2.3c.32.83.77,1.67,1.21,2.56a36.77,36.77,0,0,0,3.58,5.4,36.11,36.11,0,0,0,4.56,4.6c.78.63,1.51,1.23,2.25,1.72s1.43.95,2.07,1.35C129.46,309.43,131.23,310.07,131.19,310.17Z" style="fill: rgb(69, 90, 100); transform-origin: 121.105px 297.68px;" id="elvzzvrx604a" class="animable"></path><path d="M157.68,280.3a6.35,6.35,0,0,1-2.37.07,13.75,13.75,0,0,1-5.45-1.77,13.55,13.55,0,0,1-4.26-3.83,6.34,6.34,0,0,1-1.11-2.09c.08-.05.5.75,1.4,1.87a15.09,15.09,0,0,0,4.22,3.61,15.64,15.64,0,0,0,5.25,1.86C156.77,280.24,157.68,280.22,157.68,280.3Z" style="fill: rgb(69, 90, 100); transform-origin: 151.085px 276.564px;" id="elf5jz03h48ht" class="animable"></path><path d="M214.76,169.57a60.07,60.07,0,0,1,2.93-5.92c.75-1,4.11-4.84,4.11-4.84s6.75-3.12,7.85-2.81a8.24,8.24,0,0,1,1.87.78l9.43-6.6s2.21-1.16,3.07.16-.33,2.31-.83,2.92-7.34,6.47-7.34,6.47l-.25.47s2.55.78,2.55,2.17a6.69,6.69,0,0,1-.91,2.92,2.43,2.43,0,0,1,.78,2.63l-.5,1.69a3,3,0,0,1,1.29,2.71c-.24,1.7-4.28,4.61-4.28,4.61s-7.34,3.27-8.86,3.42-5,1-5,1Z" style="fill: rgb(255, 190, 157); transform-origin: 229.542px 165.529px;" id="el13vum2b4eifk" class="animable"></path><path d="M233.55,155.35a9.58,9.58,0,0,1-1.69,1.35,22.36,22.36,0,0,1-4.55,2.64,30.08,30.08,0,0,0-4.87,1.75,8,8,0,0,0-1.63,1.33c-.06,0,.28-.87,1.44-1.64s3-1.25,4.88-1.91a32.19,32.19,0,0,0,4.53-2.47A8.58,8.58,0,0,1,233.55,155.35Z" style="fill: rgb(235, 153, 110); transform-origin: 227.177px 158.885px;" id="elcpqfix1ex9e" class="animable"></path><path d="M235.79,159.9c.06,0,0,.27-.27.51a4.55,4.55,0,0,1-1.1.71c-.93.41-1.69.62-1.75.51s.64-.57,1.53-1c.44-.2.84-.39,1.11-.53S235.73,159.86,235.79,159.9Z" style="fill: rgb(235, 153, 110); transform-origin: 234.239px 160.775px;" id="elhxhz6626uxb" class="animable"></path><path d="M237.29,165c.1.09-.21.59-.75,1s-1.09.66-1.16.54.32-.51.83-.93S237.19,164.94,237.29,165Z" style="fill: rgb(235, 153, 110); transform-origin: 236.34px 165.781px;" id="el4zjrnnqqutw" class="animable"></path><path d="M237.8,169.28c.13,0-.06.77-.75,1.32s-1.42.6-1.44.47.55-.39,1.12-.86S237.67,169.22,237.8,169.28Z" style="fill: rgb(235, 153, 110); transform-origin: 236.724px 170.203px;" id="el9ufwbgo4pn" class="animable"></path><polygon points="215.09 168.56 202.46 176.72 207.47 192.98 223.53 179.61 222.56 172.35 215.09 168.56" style="fill: rgb(255, 190, 157); transform-origin: 212.995px 180.77px;" id="elrt328n55di" class="animable"></polygon><path d="M109.66,103.77l-.54,44c-.1,7.47,1.3,18.48,13.13,18.09h0c10.23-1.12,12.95-10.81,13-17.79,0-3.31.07-6.07.1-6.41,0,0,11.21-.91,12.15-12,.46-5.35.5-16.44.43-26.48A20.69,20.69,0,0,0,128.77,82.7l-1.07-.08C116.12,82.45,109.51,92.19,109.66,103.77Z" style="fill: rgb(255, 190, 157); transform-origin: 128.536px 124.244px;" id="el1jxlv6wcvcn" class="animable"></path><path d="M135.38,141.63a26.82,26.82,0,0,1-14.11-5.32s2.92,8.35,14,8.16Z" style="fill: rgb(235, 153, 110); transform-origin: 128.325px 140.392px;" id="el469m7q7z6je" class="animable"></path><path d="M129,107.7c-.22.23-1.49-.8-3.35-.85s-3.24.86-3.43.62.13-.51.73-.94a4.69,4.69,0,0,1,2.76-.78,4.4,4.4,0,0,1,2.66,1C129,107.18,129.14,107.61,129,107.7Z" style="fill: rgb(38, 50, 56); transform-origin: 125.607px 106.74px;" id="el9q96uczzvdg" class="animable"></path><path d="M129,111.54a1.51,1.51,0,0,1-1.55,1.41,1.44,1.44,0,0,1-1.45-1.47,1.5,1.5,0,0,1,1.55-1.4A1.43,1.43,0,0,1,129,111.54Z" style="fill: rgb(38, 50, 56); transform-origin: 127.5px 111.515px;" id="eltf3v1929lu" class="animable"></path><path d="M133.68,120.61a10.81,10.81,0,0,1,2.8-.3c.44,0,.86-.07,1-.36a2.2,2.2,0,0,0-.19-1.31c-.34-1.08-.68-2.22-1.05-3.41-1.44-4.84-2.45-8.81-2.25-8.87s1.52,3.83,3,8.67q.53,1.78,1,3.42a2.51,2.51,0,0,1,.1,1.72,1.11,1.11,0,0,1-.76.59,3.4,3.4,0,0,1-.75,0A12,12,0,0,1,133.68,120.61Z" style="fill: rgb(38, 50, 56); transform-origin: 135.938px 113.574px;" id="el7jp0gxjw44p" class="animable"></path><path d="M128.25,100.73c-.18.41-1.67.1-3.45.2s-3.24.48-3.44.08c-.09-.19.18-.56.79-.93a5.85,5.85,0,0,1,5.24-.22C128,100.18,128.32,100.54,128.25,100.73Z" style="fill: rgb(38, 50, 56); transform-origin: 124.801px 100.267px;" id="eleuhhs7dtzld" class="animable"></path><path d="M145.86,104.17c-.2.33-1.64,0-3.4-.09s-3.21.17-3.39-.18c-.08-.17.21-.47.82-.74a6.07,6.07,0,0,1,2.59-.42,6.37,6.37,0,0,1,2.58.63C145.66,103.69,145.94,104,145.86,104.17Z" style="fill: rgb(38, 50, 56); transform-origin: 142.465px 103.522px;" id="el6fedbxkjwqn" class="animable"></path><path d="M110,112c-.18-.1-7.45-2.81-7.76,4.78s7.38,6.34,7.4,6.12S110,112,110,112Z" style="fill: rgb(255, 190, 157); transform-origin: 106.115px 117.28px;" id="elnko3i2f2laa" class="animable"></path><path d="M107.41,120s-.14.09-.37.18a1.35,1.35,0,0,1-1,0,3.28,3.28,0,0,1-1.39-3,4.38,4.38,0,0,1,.45-1.88,1.52,1.52,0,0,1,1-1,.68.68,0,0,1,.77.39c.09.22,0,.37.08.38s.17-.12.12-.43a.89.89,0,0,0-.28-.49,1,1,0,0,0-.72-.22,1.83,1.83,0,0,0-1.43,1.12,4.44,4.44,0,0,0-.55,2.09c0,1.54.71,3,1.79,3.36a1.42,1.42,0,0,0,1.22-.15C107.39,120.15,107.43,120,107.41,120Z" style="fill: rgb(235, 153, 110); transform-origin: 105.752px 117.25px;" id="elr1arr99n0x" class="animable"></path><path d="M131.89,125.86c.08-.19-1.41-.64-2.45-2a8.56,8.56,0,0,1-1.05-2c-.22-.55-.39-.9-.47-.88s-.06.4.06,1a5.7,5.7,0,0,0,1,2.22,4.53,4.53,0,0,0,1.94,1.49C131.48,125.91,131.87,125.93,131.89,125.86Z" style="fill: rgb(38, 50, 56); transform-origin: 129.883px 123.438px;" id="el0sjgsn23bak" class="animable"></path><path d="M145.94,108.4c-.22.23-1.5-.8-3.35-.85s-3.24.86-3.44.62.14-.52.74-.94a4.67,4.67,0,0,1,2.76-.78,4.45,4.45,0,0,1,2.66,1C145.87,107.88,146.05,108.3,145.94,108.4Z" style="fill: rgb(38, 50, 56); transform-origin: 142.532px 107.44px;" id="el4705huxenfx" class="animable"></path><path d="M145.64,112.08a1.5,1.5,0,0,1-1.56,1.4,1.43,1.43,0,0,1-1.44-1.46,1.49,1.49,0,0,1,1.55-1.4A1.43,1.43,0,0,1,145.64,112.08Z" style="fill: rgb(38, 50, 56); transform-origin: 144.14px 112.05px;" id="el3agew5iwwx7" class="animable"></path><path d="M155.68,88.47a6,6,0,0,0-7.47-2.36A8.2,8.2,0,0,0,134.09,79a3.33,3.33,0,0,0-1.64-2.25,6.46,6.46,0,0,0-2.72-.81,13,13,0,0,0-11.91,5.19,14.19,14.19,0,0,0-12,4.38c-3.57,3.95-4.24,13.11-.33,21l.92,5a4.48,4.48,0,0,1,3.1.76c1,.92,1.48,2.66,3.19,2,.87-.34,1.66-2.16,1.95-3A43.11,43.11,0,0,0,116.5,93a13.83,13.83,0,0,1,4.29-3.09l-.13.12c3.09-1.08,6.59-2.14,9.52-.68,2.28,1.12,3.62,3.49,5.32,5.37a17.38,17.38,0,0,0,12.39,5.72c.16,3.12-.1,7.52.06,10.64l2.62-5v0c.21-.36.39-.73.56-1.1l.06-.11v0h0a26.13,26.13,0,0,0,1.65-2,6.54,6.54,0,0,0,1.08-6.69A6,6,0,0,0,155.68,88.47Z" style="fill: rgb(38, 50, 56); transform-origin: 129.619px 95.137px;" id="ely4d0mdlev8i" class="animable"></path><polygon points="152.11 103.09 152.1 103.08 152.1 103.08 152.11 103.09" style="fill: rgb(38, 50, 56); transform-origin: 152.105px 103.085px;" id="elar81cishsx7" class="animable"></polygon><path d="M151.14,88.58s0,.06.06.17a2.26,2.26,0,0,1,.07.49,3.36,3.36,0,0,1-.44,1.78,3.5,3.5,0,0,1-.85,1,3,3,0,0,1-1.39.59,3.41,3.41,0,0,1-3.16-1.19l.19-.16a2.09,2.09,0,0,1,.53,1.49,2.75,2.75,0,0,1-.85,1.91,3.08,3.08,0,0,1-1.79.76,4.83,4.83,0,0,1-3.12-.86,10,10,0,0,1-1.67-1.41,4.22,4.22,0,0,1-.53-.6,5,5,0,0,1,.6.53,11.56,11.56,0,0,0,1.69,1.33,4.72,4.72,0,0,0,3,.78,2.85,2.85,0,0,0,1.65-.71,2.51,2.51,0,0,0,.77-1.74,1.86,1.86,0,0,0-.46-1.31l.18-.17a3.22,3.22,0,0,0,2.94,1.13,3,3,0,0,0,2.12-1.44,3.35,3.35,0,0,0,.5-1.69C151.18,88.82,151.12,88.59,151.14,88.58Z" style="fill: rgb(69, 90, 100); transform-origin: 144.731px 92.0064px;" id="ela7hokbumusv" class="animable"></path><path d="M141.64,80.26l.17.08a2.71,2.71,0,0,1,.42.28,3.78,3.78,0,0,1,1.14,1.49,2.89,2.89,0,0,1-.26,2.73,2.23,2.23,0,0,1-1.38,1,2.26,2.26,0,0,1-1.77-.34,2.09,2.09,0,0,1-.42-.42l.22-.12a2.16,2.16,0,0,1-.06,1.71,2.37,2.37,0,0,1-1.1,1.13,3.1,3.1,0,0,1-2.59,0,4.08,4.08,0,0,1-1.39-1,2,2,0,0,1-.37-.52s.15.17.44.46a4.21,4.21,0,0,0,1.39,1,2.86,2.86,0,0,0,2.41,0,2.07,2.07,0,0,0,1-1,1.86,1.86,0,0,0,.05-1.5l-.4-.93.61.81a1.81,1.81,0,0,0,.37.36,2,2,0,0,0,1.57.3,2,2,0,0,0,1.24-.84,2.74,2.74,0,0,0,.29-2.54,4,4,0,0,0-1-1.47C141.84,80.41,141.63,80.28,141.64,80.26Z" style="fill: rgb(69, 90, 100); transform-origin: 138.924px 84.1717px;" id="elz7wbx6bdclo" class="animable"></path><path d="M79.16,172.1S71,218.56,71.38,222.9s2.57,11.25,7.5,12.44a21.81,21.81,0,0,0,9.48,0l-5.93-57.06Z" style="fill: rgb(0, 100, 255); transform-origin: 79.8636px 203.981px;" id="elq73tkl326kp" class="animable"></path><path d="M156.69,243.66l-1.5-21.11.44-28.4-7-42.08-9.67-2-1.28-5s-7.89-5.83-20.91-6c-4-.05-9.67,1.53-12.83,4l-.83,5.11s-9.79,7-12,9c-9,8.56-10.94,12.07-12,15s6.28,70.16,6.28,70.16l-1,12.12L83,262.47c-.7,3,.71,7.46,3.82,7.6h70C159.92,270.14,157.29,246.77,156.69,243.66Z" style="fill: rgb(0, 100, 255); transform-origin: 118.654px 204.57px;" id="el5dja6cdr6s8" class="animable"></path><path d="M205,171.89l-16.48,10.17c-3-2.67-4,.52-4,.52s-15.61-11.85-22.08-18.31c-7.23-7.22-12.13-11.58-14.36-11.75-.63-.05-10.87,1.65-10.87,1.65l-3,10.33c-3,10.33,10,28.09,10,28.09l16.37,8.31c1.6,1.45,10.1,6.57,18.75,10a13.55,13.55,0,0,0,13.84-2.43l24.28-21.14A30,30,0,0,0,205,171.89Z" style="fill: rgb(0, 100, 255); transform-origin: 175.605px 182.171px;" id="elbniw6xx6u25" class="animable"></path><path d="M139,150.09l-.36-.08-1-.27c-.89-.22-2.17-.53-3.78-.84a107,107,0,0,0-12.68-1.56,87.52,87.52,0,0,0-12.77,0c-1.63.14-2.94.34-3.84.5l-1,.21a2,2,0,0,1-.37,0,1.63,1.63,0,0,1,.35-.11l1-.26a31.8,31.8,0,0,1,3.84-.6,77.74,77.74,0,0,1,12.81-.13,94,94,0,0,1,12.7,1.65c1.61.34,2.89.68,3.77.94l1,.32A1.51,1.51,0,0,1,139,150.09Z" style="fill: rgb(38, 50, 56); transform-origin: 121.1px 148.418px;" id="elyl2pgnk0jqj" class="animable"></path><g id="el95zh4mw3m0o"><g style="opacity: 0.3; transform-origin: 119.84px 148.244px;" class="animable"><path d="M103.34,148.08c10.75,1.9,21.65,0,33,1.37-11-2.28-22.43-3.36-33-1.37" id="el3hazp32k4ys" class="animable" style="transform-origin: 119.84px 148.244px;"></path></g></g><g id="ellnabut5hk2f"><g style="opacity: 0.3; transform-origin: 81.9507px 212.65px;" class="animable"><path d="M84.47,235.43c-6-14.17-5.33-30.18-4.51-45.56Z" id="elxqgt3v303e" class="animable" style="transform-origin: 81.9507px 212.65px;"></path></g></g><path d="M79.86,182.15s0,.06,0,.17,0,.28,0,.48q.06.67.18,1.86c.14,1.64.34,4,.59,6.86.48,5.78,1.15,13.78,2,22.6S84.3,230.93,85,236.7c.33,2.88.62,5.22.82,6.83.1.79.17,1.41.23,1.86l0,.48c0,.11,0,.17,0,.17l0-.17c0-.12,0-.28-.08-.48-.07-.44-.17-1.06-.29-1.85-.24-1.61-.56-3.94-.92-6.82C84,231,83.17,223,82.36,214.14s-1.44-16.82-1.87-22.61c-.2-2.88-.37-5.22-.49-6.86l-.12-1.86,0-.49Z" style="fill: rgb(38, 50, 56); transform-origin: 82.955px 214.095px;" id="el72lzmi8xbdm" class="animable"></path><path d="M125.68,174.63a2.28,2.28,0,0,1-.45,0H124c-1.11,0-2.7,0-4.67.06-3.93.09-9.37.38-15.33,1.08s-11.32,1.71-15.17,2.55c-1.92.42-3.48.77-4.55,1l-1.23.29a3,3,0,0,1-.44.08,2.26,2.26,0,0,1,.42-.14l1.22-.35c1.07-.29,2.61-.69,4.53-1.13a146.73,146.73,0,0,1,15.18-2.64,143.06,143.06,0,0,1,15.37-1c2,0,3.57,0,4.67,0l1.27.05Z" style="fill: rgb(38, 50, 56); transform-origin: 104.145px 177.06px;" id="elab6f2tfp0v7" class="animable"></path><path d="M99.29,189.67c-.08,0,.08-6.43.36-14.37s.57-14.36.65-14.35-.07,6.43-.35,14.37S99.38,189.67,99.29,189.67Z" style="fill: rgb(38, 50, 56); transform-origin: 99.7954px 175.31px;" id="eldfdjsk9bqb" class="animable"></path><path d="M145.94,191.07a2.39,2.39,0,0,1-.34-.36l-.94-1.05-3.47-3.88a36.33,36.33,0,0,1-4.54-6.16,20.33,20.33,0,0,1-1.7-4.13,24.78,24.78,0,0,1,.46-13.85,14.56,14.56,0,0,1,2-3.68A14.16,14.16,0,0,1,140,155.3a12.28,12.28,0,0,1,5.05-2.38,8.15,8.15,0,0,1,2.06-.21,19.73,19.73,0,0,0-2,.32,12.67,12.67,0,0,0-4.92,2.43,14,14,0,0,0-2.56,2.64,14.67,14.67,0,0,0-1.92,3.62,25,25,0,0,0-.43,13.69,20,20,0,0,0,1.66,4.08,37.93,37.93,0,0,0,4.45,6.16l3.38,3.93.89,1.1A2.37,2.37,0,0,1,145.94,191.07Z" style="fill: rgb(38, 50, 56); transform-origin: 140.644px 171.889px;" id="elz2h0dn0hsl" class="animable"></path><g id="elyb9gvsm09no"><g style="opacity: 0.3; transform-origin: 102.44px 179.291px;" class="animable"><path d="M83.69,179.72A81.2,81.2,0,0,0,96.6,178a19.76,19.76,0,0,0-.72,5.78,13.15,13.15,0,0,0,2.87-5.29,8,8,0,0,0,3.26,5.35,17.41,17.41,0,0,0,.29-5.89q9.63-1.16,19.14-3.17a130,130,0,0,0-38,4.73" id="elc0hmg8jublc" class="animable" style="transform-origin: 102.44px 179.291px;"></path></g></g><path d="M217.12,187.87a4.71,4.71,0,0,1-.59.56L214.78,190l-6.51,5.55-9.68,8.18c-1.82,1.54-3.66,3.23-5.68,4.89a19.08,19.08,0,0,1-3.32,2.23,18.56,18.56,0,0,1-1.85.89,5.89,5.89,0,0,1-2.08.51,1,1,0,0,1-.47-.1l.2,0a9.3,9.3,0,0,1-4.14-.12,26,26,0,0,1-3.79-1.16,64.9,64.9,0,0,1-6.75-3.16c-4.18-2.25-7.79-4.52-10.78-6.48s-5.37-3.62-7-4.78l-1.87-1.35a5.56,5.56,0,0,1-.62-.5,4.56,4.56,0,0,1,.68.41l1.92,1.28c1.66,1.11,4.06,2.72,7.07,4.64s6.64,4.15,10.81,6.36a63,63,0,0,0,6.71,3.11,27.17,27.17,0,0,0,3.72,1.14,8.83,8.83,0,0,0,3.89.12l.2,0a1.59,1.59,0,0,0,.22,0,5.22,5.22,0,0,0,1.88-.48,14.85,14.85,0,0,0,1.8-.86,18.51,18.51,0,0,0,3.24-2.17c2-1.63,3.86-3.32,5.7-4.86l9.75-8.1,6.61-5.42,1.81-1.46A5,5,0,0,1,217.12,187.87Z" style="fill: rgb(38, 50, 56); transform-origin: 183.78px 200.099px;" id="ely47fyxi99tf" class="animable"></path></g><defs>     <filter id="active" height="200%">         <feMorphology in="SourceAlpha" result="DILATED" operator="dilate" radius="2"></feMorphology>                <feFlood flood-color="#32DFEC" flood-opacity="1" result="PINK"></feFlood>        <feComposite in="PINK" in2="DILATED" operator="in" result="OUTLINE"></feComposite>        <feMerge>            <feMergeNode in="OUTLINE"></feMergeNode>            <feMergeNode in="SourceGraphic"></feMergeNode>        </feMerge>    </filter>    <filter id="hover" height="200%">        <feMorphology in="SourceAlpha" result="DILATED" operator="dilate" radius="2"></feMorphology>                <feFlood flood-color="#ff0000" flood-opacity="0.5" result="PINK"></feFlood>        <feComposite in="PINK" in2="DILATED" operator="in" result="OUTLINE"></feComposite>        <feMerge>            <feMergeNode in="OUTLINE"></feMergeNode>            <feMergeNode in="SourceGraphic"></feMergeNode>        </feMerge>            <feColorMatrix type="matrix" values="0   0   0   0   0                0   1   0   0   0                0   0   0   0   0                0   0   0   1   0 "></feColorMatrix>    </filter></defs></svg>